<svg xmlns="http://www.w3.org/2000/svg" xmlns:xlink="http://www.w3.org/1999/xlink" width="40" zoomAndPan="magnify" viewBox="0 0 30 30.000001" height="40" preserveAspectRatio="xMidYMid meet" version="1.0"><defs><clipPath id="7c99255c7b"><path d="M 0.484375 0 L 29.515625 0 L 29.515625 29 L 0.484375 29 Z M 0.484375 0 " clip-rule="nonzero"/></clipPath><clipPath id="4756b39f0f"><path d="M 6 0 L 29.515625 0 L 29.515625 27 L 6 27 Z M 6 0 " clip-rule="nonzero"/></clipPath><clipPath id="91d704c784"><path d="M 0.484375 25 L 2 25 L 2 29 L 0.484375 29 Z M 0.484375 25 " clip-rule="nonzero"/></clipPath><clipPath id="acfbb14a5a"><path d="M 0.484375 25 L 3 25 L 3 29 L 0.484375 29 Z M 0.484375 25 " clip-rule="nonzero"/></clipPath><clipPath id="0d66f026ed"><path d="M 0.484375 26 L 2 26 L 2 29 L 0.484375 29 Z M 0.484375 26 " clip-rule="nonzero"/></clipPath><clipPath id="95ca0c06a2"><path d="M 0.484375 26 L 3 26 L 3 29 L 0.484375 29 Z M 0.484375 26 " clip-rule="nonzero"/></clipPath><clipPath id="64d95aa449"><path d="M 0.484375 26 L 2 26 L 2 29 L 0.484375 29 Z M 0.484375 26 " clip-rule="nonzero"/></clipPath></defs><g clip-path="url(#7c99255c7b)"><path fill="#e13a2a" d="M 9.4375 27.421875 C 10.8125 28.035156 13.441406 28.941406 16.714844 28.578125 C 20.910156 28.109375 24.222656 25.796875 26.082031 23.546875 C 32.25 16.085938 28.265625 2.421875 22.453125 0.613281 C 21.398438 0.285156 20.378906 0.375 19.128906 0.488281 C 15.148438 0.851562 13.964844 2.753906 9.738281 4.035156 C 5.894531 5.199219 5.460938 4.050781 3.75 5.136719 C 0.0429688 7.5 -0.144531 14.320312 1.632812 19.011719 C 2.316406 20.8125 4.410156 25.183594 9.4375 27.421875 " fill-opacity="1" fill-rule="nonzero"/></g><g clip-path="url(#4756b39f0f)"><path fill="#8b8c8f" d="M 26.839844 26.773438 L 7.113281 26.710938 C 6.738281 26.710938 6.445312 26.394531 6.46875 26.023438 L 8.082031 0.667969 C 8.105469 0.324219 8.386719 0.0625 8.730469 0.0625 L 28.507812 0 C 28.882812 0 29.230469 0.375 29.207031 0.75 L 27.589844 26.105469 C 27.570312 26.445312 27.183594 26.773438 26.839844 26.773438 " fill-opacity="1" fill-rule="nonzero"/></g><path fill="#e4dd9e" d="M 26.28125 26.710938 L 6.449219 26.710938 C 6.074219 26.710938 5.777344 26.394531 5.804688 26.023438 L 7.417969 0.667969 C 7.441406 0.324219 7.722656 0.0625 8.066406 0.0625 L 27.898438 0.0625 C 28.269531 0.0625 28.566406 0.375 28.542969 0.75 L 26.925781 26.105469 C 26.90625 26.445312 26.621094 26.710938 26.28125 26.710938 " fill-opacity="1" fill-rule="nonzero"/><path fill="#000000" d="M 26.28125 26.761719 L 6.96875 26.761719 C 6.9375 26.761719 6.914062 26.738281 6.914062 26.710938 C 6.914062 26.683594 6.9375 26.660156 6.96875 26.660156 L 26.28125 26.660156 C 26.59375 26.660156 26.855469 26.414062 26.875 26.101562 L 28.492188 0.746094 C 28.5 0.582031 28.445312 0.421875 28.332031 0.300781 C 28.21875 0.179688 28.0625 0.113281 27.898438 0.113281 L 8.066406 0.113281 C 7.75 0.113281 7.492188 0.359375 7.472656 0.671875 L 7.035156 7.480469 C 7.035156 7.507812 7.011719 7.53125 6.980469 7.527344 C 6.953125 7.527344 6.929688 7.503906 6.933594 7.472656 L 7.367188 0.664062 C 7.390625 0.296875 7.695312 0.0078125 8.066406 0.0078125 L 27.898438 0.0078125 C 28.09375 0.0078125 28.273438 0.0859375 28.40625 0.230469 C 28.539062 0.371094 28.605469 0.558594 28.59375 0.753906 L 26.976562 26.109375 C 26.953125 26.476562 26.648438 26.761719 26.28125 26.761719 " fill-opacity="1" fill-rule="nonzero"/><path fill="#d2d8e6" d="M 25.570312 25.890625 L 7.164062 25.890625 C 6.824219 25.890625 6.550781 25.601562 6.574219 25.257812 L 8.101562 1.351562 C 8.121094 1.039062 8.378906 0.796875 8.691406 0.796875 L 27.097656 0.796875 C 27.441406 0.796875 27.714844 1.085938 27.691406 1.425781 L 26.164062 25.335938 C 26.144531 25.648438 25.882812 25.890625 25.570312 25.890625 " fill-opacity="1" fill-rule="nonzero"/><path fill="#e4dd9e" d="M 12.320312 7.503906 C 12.320312 7.503906 12.320312 7.503906 12.316406 7.503906 C 12.289062 7.503906 12.265625 7.480469 12.269531 7.449219 L 12.445312 4.652344 C 12.472656 4.1875 12.863281 3.824219 13.328125 3.824219 L 17.941406 3.824219 C 17.972656 3.824219 17.996094 3.847656 17.996094 3.875 C 17.996094 3.90625 17.972656 3.925781 17.941406 3.925781 L 13.328125 3.925781 C 12.917969 3.925781 12.574219 4.25 12.546875 4.660156 L 12.371094 7.457031 C 12.371094 7.484375 12.347656 7.503906 12.320312 7.503906 " fill-opacity="1" fill-rule="nonzero"/><path fill="#e4dd9e" d="M 12.121094 10.6875 C 12.121094 10.6875 12.121094 10.6875 12.117188 10.6875 C 12.089844 10.6875 12.066406 10.664062 12.070312 10.632812 L 12.195312 8.625 C 12.199219 8.59375 12.222656 8.574219 12.25 8.574219 C 12.28125 8.578125 12.300781 8.601562 12.300781 8.628906 L 12.171875 10.640625 C 12.171875 10.667969 12.148438 10.6875 12.121094 10.6875 " fill-opacity="1" fill-rule="nonzero"/><path fill="#8b8c8f" d="M 12.71875 17.636719 L 10.683594 17.636719 C 10.332031 17.636719 10.007812 17.496094 9.765625 17.242188 C 9.527344 16.984375 9.40625 16.652344 9.425781 16.300781 L 9.472656 15.496094 C 9.476562 15.464844 9.5 15.445312 9.527344 15.445312 C 9.558594 15.445312 9.578125 15.472656 9.578125 15.5 L 9.527344 16.308594 C 9.511719 16.628906 9.621094 16.933594 9.839844 17.167969 C 10.0625 17.402344 10.359375 17.53125 10.683594 17.53125 L 12.71875 17.53125 C 12.746094 17.53125 12.769531 17.554688 12.769531 17.585938 C 12.769531 17.613281 12.746094 17.636719 12.71875 17.636719 " fill-opacity="1" fill-rule="nonzero"/><path fill="#8b8c8f" d="M 9.679688 12.957031 C 9.679688 12.957031 9.679688 12.957031 9.675781 12.957031 C 9.648438 12.957031 9.625 12.929688 9.628906 12.902344 L 10.167969 3.84375 C 10.203125 3.25 10.699219 2.785156 11.292969 2.785156 L 15.730469 2.785156 C 15.757812 2.785156 15.78125 2.808594 15.78125 2.835938 C 15.78125 2.867188 15.757812 2.890625 15.730469 2.890625 L 11.292969 2.890625 C 10.753906 2.890625 10.304688 3.3125 10.273438 3.851562 L 9.730469 12.910156 C 9.730469 12.9375 9.707031 12.957031 9.679688 12.957031 " fill-opacity="1" fill-rule="nonzero"/><path fill="#8b8c8f" d="M 15.210938 9.675781 C 15.210938 9.675781 15.210938 9.675781 15.207031 9.675781 C 15.179688 9.675781 15.160156 9.648438 15.160156 9.621094 L 15.339844 7.140625 C 15.367188 6.753906 15.691406 6.453125 16.078125 6.453125 L 17.320312 6.453125 C 17.347656 6.453125 17.371094 6.476562 17.371094 6.503906 C 17.371094 6.535156 17.347656 6.554688 17.320312 6.554688 L 16.078125 6.554688 C 15.746094 6.554688 15.46875 6.816406 15.445312 7.148438 L 15.265625 9.628906 C 15.261719 9.65625 15.238281 9.675781 15.210938 9.675781 " fill-opacity="1" fill-rule="nonzero"/><path fill="#e4dd9e" d="M 22.992188 15.480469 L 20.988281 15.480469 C 20.957031 15.480469 20.933594 15.457031 20.933594 15.429688 C 20.933594 15.402344 20.957031 15.378906 20.988281 15.378906 L 22.992188 15.378906 C 23.324219 15.378906 23.625 15.167969 23.742188 14.859375 L 24.886719 11.816406 C 24.898438 11.789062 24.925781 11.777344 24.953125 11.785156 C 24.980469 11.796875 24.992188 11.824219 24.984375 11.851562 L 23.835938 14.894531 C 23.707031 15.246094 23.367188 15.480469 22.992188 15.480469 " fill-opacity="1" fill-rule="nonzero"/><path fill="#8b8c8f" d="M 13.652344 10.117188 C 13.652344 10.117188 13.652344 10.117188 13.648438 10.117188 C 13.621094 10.117188 13.601562 10.089844 13.601562 10.0625 L 13.855469 5.894531 C 13.882812 5.488281 14.21875 5.171875 14.621094 5.171875 L 16.699219 5.171875 C 16.726562 5.171875 16.75 5.195312 16.75 5.226562 C 16.75 5.253906 16.726562 5.277344 16.699219 5.277344 L 14.621094 5.277344 C 14.273438 5.277344 13.980469 5.550781 13.960938 5.898438 L 13.707031 10.066406 C 13.703125 10.097656 13.679688 10.117188 13.652344 10.117188 " fill-opacity="1" fill-rule="nonzero"/><path fill="#8b8c8f" d="M 22.148438 14.289062 L 21.4375 14.289062 C 21.40625 14.289062 21.382812 14.265625 21.382812 14.238281 C 21.382812 14.210938 21.40625 14.1875 21.4375 14.1875 L 22.148438 14.1875 C 22.382812 14.1875 22.597656 14.039062 22.675781 13.816406 L 23.414062 11.800781 C 23.421875 11.773438 23.453125 11.761719 23.480469 11.769531 C 23.507812 11.78125 23.519531 11.808594 23.511719 11.835938 L 22.773438 13.851562 C 22.679688 14.113281 22.425781 14.289062 22.148438 14.289062 " fill-opacity="1" fill-rule="nonzero"/><path fill="#8b8c8f" d="M 23.980469 16.691406 L 20.675781 16.691406 C 20.648438 16.691406 20.625 16.667969 20.625 16.640625 C 20.625 16.613281 20.648438 16.589844 20.675781 16.589844 L 23.980469 16.589844 C 24.324219 16.589844 24.632812 16.382812 24.769531 16.066406 L 25.75 13.746094 C 25.761719 13.71875 25.792969 13.707031 25.820312 13.714844 C 25.84375 13.726562 25.859375 13.757812 25.847656 13.785156 L 24.863281 16.105469 C 24.714844 16.460938 24.367188 16.691406 23.980469 16.691406 " fill-opacity="1" fill-rule="nonzero"/><path fill="#e4dd9e" d="M 25.320312 11.695312 C 25.320312 11.867188 25.183594 12.003906 25.011719 12.003906 C 24.839844 12.003906 24.703125 11.867188 24.703125 11.695312 C 24.703125 11.523438 24.839844 11.386719 25.011719 11.386719 C 25.183594 11.386719 25.320312 11.523438 25.320312 11.695312 " fill-opacity="1" fill-rule="nonzero"/><path fill="#8b8c8f" d="M 23.890625 11.578125 C 23.890625 11.75 23.753906 11.886719 23.582031 11.886719 C 23.410156 11.886719 23.273438 11.75 23.273438 11.578125 C 23.273438 11.40625 23.410156 11.269531 23.582031 11.269531 C 23.753906 11.269531 23.890625 11.40625 23.890625 11.578125 " fill-opacity="1" fill-rule="nonzero"/><path fill="#8b8c8f" d="M 26.199219 13.527344 C 26.199219 13.699219 26.0625 13.835938 25.890625 13.835938 C 25.71875 13.835938 25.582031 13.699219 25.582031 13.527344 C 25.582031 13.355469 25.71875 13.21875 25.890625 13.21875 C 26.0625 13.21875 26.199219 13.355469 26.199219 13.527344 " fill-opacity="1" fill-rule="nonzero"/><path fill="#e4dd9e" d="M 18.25 3.875 C 18.25 4.046875 18.113281 4.183594 17.941406 4.183594 C 17.773438 4.183594 17.632812 4.046875 17.632812 3.875 C 17.632812 3.703125 17.773438 3.566406 17.941406 3.566406 C 18.113281 3.566406 18.25 3.703125 18.25 3.875 " fill-opacity="1" fill-rule="nonzero"/><path fill="#8b8c8f" d="M 17.015625 5.226562 C 17.015625 5.398438 16.878906 5.535156 16.707031 5.535156 C 16.535156 5.535156 16.398438 5.398438 16.398438 5.226562 C 16.398438 5.054688 16.535156 4.917969 16.707031 4.917969 C 16.878906 4.917969 17.015625 5.054688 17.015625 5.226562 " fill-opacity="1" fill-rule="nonzero"/><path fill="#8b8c8f" d="M 17.683594 6.515625 C 17.683594 6.6875 17.546875 6.824219 17.375 6.824219 C 17.207031 6.824219 17.066406 6.6875 17.066406 6.515625 C 17.066406 6.34375 17.207031 6.207031 17.375 6.207031 C 17.546875 6.207031 17.683594 6.34375 17.683594 6.515625 " fill-opacity="1" fill-rule="nonzero"/><path fill="#8b8c8f" d="M 16.058594 2.839844 C 16.058594 3.011719 15.921875 3.148438 15.75 3.148438 C 15.578125 3.148438 15.441406 3.011719 15.441406 2.839844 C 15.441406 2.667969 15.578125 2.53125 15.75 2.53125 C 15.921875 2.53125 16.058594 2.667969 16.058594 2.839844 " fill-opacity="1" fill-rule="nonzero"/><path fill="#e13a2a" d="M 22.734375 3.546875 L 22.761719 3.105469 C 22.777344 2.867188 22.589844 2.664062 22.347656 2.664062 L 19.398438 2.664062 C 19.179688 2.664062 18.996094 2.832031 18.984375 3.050781 L 18.625 9.300781 C 18.609375 9.539062 18.800781 9.742188 19.039062 9.742188 L 25.6875 9.878906 C 25.90625 9.878906 26.089844 9.710938 26.101562 9.492188 L 26.402344 3.988281 C 26.417969 3.75 26.230469 3.546875 25.988281 3.546875 L 22.734375 3.546875 " fill-opacity="1" fill-rule="nonzero"/><path fill="#000000" d="M 19.398438 2.714844 C 19.207031 2.714844 19.046875 2.863281 19.035156 3.054688 L 18.675781 9.300781 C 18.671875 9.402344 18.703125 9.5 18.773438 9.574219 C 18.84375 9.648438 18.9375 9.6875 19.039062 9.6875 L 25.6875 9.828125 C 25.878906 9.828125 26.039062 9.679688 26.050781 9.488281 L 26.351562 3.984375 C 26.359375 3.882812 26.324219 3.789062 26.253906 3.714844 C 26.183594 3.640625 26.089844 3.597656 25.988281 3.597656 L 22.734375 3.597656 C 22.722656 3.597656 22.707031 3.59375 22.699219 3.582031 C 22.6875 3.570312 22.683594 3.558594 22.683594 3.542969 L 22.710938 3.101562 C 22.71875 3 22.683594 2.902344 22.613281 2.828125 C 22.542969 2.757812 22.449219 2.714844 22.347656 2.714844 Z M 25.6875 9.933594 L 19.039062 9.792969 C 18.910156 9.792969 18.789062 9.742188 18.699219 9.644531 C 18.609375 9.550781 18.566406 9.425781 18.574219 9.296875 L 18.933594 3.050781 C 18.949219 2.804688 19.152344 2.613281 19.398438 2.613281 L 22.347656 2.613281 C 22.480469 2.613281 22.601562 2.664062 22.6875 2.757812 C 22.777344 2.855469 22.824219 2.976562 22.816406 3.109375 L 22.789062 3.496094 L 25.988281 3.496094 C 26.121094 3.496094 26.242188 3.546875 26.332031 3.640625 C 26.417969 3.738281 26.464844 3.863281 26.457031 3.992188 L 26.15625 9.496094 C 26.140625 9.738281 25.933594 9.933594 25.6875 9.933594 " fill-opacity="1" fill-rule="nonzero"/><path fill="#e4dd9e" d="M 25.167969 9.480469 L 25.527344 4.960938 L 24.878906 4.257812 L 20.085938 4.257812 C 19.839844 4.257812 19.636719 4.445312 19.621094 4.6875 L 19.285156 9.480469 L 25.167969 9.480469 " fill-opacity="1" fill-rule="nonzero"/><path fill="#000000" d="M 19.339844 9.429688 L 25.121094 9.429688 L 25.472656 4.976562 L 24.855469 4.308594 L 20.085938 4.308594 C 19.867188 4.308594 19.6875 4.476562 19.671875 4.691406 Z M 25.214844 9.53125 L 19.230469 9.53125 L 19.570312 4.683594 C 19.589844 4.414062 19.816406 4.203125 20.085938 4.203125 L 24.902344 4.203125 L 25.582031 4.941406 L 25.214844 9.53125 " fill-opacity="1" fill-rule="nonzero"/><path fill="#000000" d="M 25.527344 5.011719 C 25.527344 5.011719 25.527344 5.011719 25.523438 5.011719 L 24.792969 4.988281 C 24.777344 4.988281 24.765625 4.984375 24.753906 4.972656 C 24.746094 4.960938 24.742188 4.949219 24.742188 4.933594 L 24.796875 4.300781 C 24.800781 4.269531 24.824219 4.25 24.855469 4.253906 C 24.882812 4.253906 24.902344 4.28125 24.902344 4.308594 L 24.851562 4.886719 L 25.527344 4.90625 C 25.558594 4.910156 25.578125 4.933594 25.578125 4.960938 C 25.578125 4.988281 25.554688 5.011719 25.527344 5.011719 " fill-opacity="1" fill-rule="nonzero"/><path fill="#d2d8e6" d="M 24.203125 5.863281 L 20.46875 5.863281 C 20.4375 5.863281 20.414062 5.839844 20.414062 5.8125 C 20.414062 5.785156 20.4375 5.761719 20.46875 5.761719 L 24.203125 5.761719 C 24.230469 5.761719 24.253906 5.785156 24.253906 5.8125 C 24.253906 5.839844 24.230469 5.863281 24.203125 5.863281 " fill-opacity="1" fill-rule="nonzero"/><path fill="#d2d8e6" d="M 24.238281 5.414062 L 20.503906 5.414062 C 20.472656 5.414062 20.449219 5.390625 20.449219 5.363281 C 20.449219 5.335938 20.472656 5.3125 20.503906 5.3125 L 24.238281 5.3125 C 24.265625 5.3125 24.289062 5.335938 24.289062 5.363281 C 24.289062 5.390625 24.265625 5.414062 24.238281 5.414062 " fill-opacity="1" fill-rule="nonzero"/><path fill="#d2d8e6" d="M 24.308594 4.964844 L 22.542969 4.964844 C 22.515625 4.964844 22.492188 4.941406 22.492188 4.914062 C 22.492188 4.886719 22.515625 4.863281 22.542969 4.863281 L 24.308594 4.863281 C 24.335938 4.863281 24.359375 4.886719 24.359375 4.914062 C 24.359375 4.941406 24.335938 4.964844 24.308594 4.964844 " fill-opacity="1" fill-rule="nonzero"/><path fill="#d2d8e6" d="M 21.609375 4.964844 L 20.570312 4.964844 C 20.542969 4.964844 20.519531 4.941406 20.519531 4.914062 C 20.519531 4.886719 20.542969 4.863281 20.570312 4.863281 L 21.609375 4.863281 C 21.636719 4.863281 21.660156 4.886719 21.660156 4.914062 C 21.660156 4.941406 21.636719 4.964844 21.609375 4.964844 " fill-opacity="1" fill-rule="nonzero"/><path fill="#e13a2a" d="M 25.675781 9.898438 L 19.015625 9.898438 C 18.808594 9.898438 18.636719 9.78125 18.605469 9.617188 L 18.078125 6.746094 C 18.039062 6.550781 18.234375 6.371094 18.488281 6.371094 L 25.144531 6.371094 C 25.351562 6.371094 25.527344 6.492188 25.554688 6.652344 L 26.085938 9.523438 C 26.121094 9.722656 25.929688 9.898438 25.675781 9.898438 " fill-opacity="1" fill-rule="nonzero"/><path fill="#000000" d="M 25.675781 9.953125 L 20.972656 9.953125 C 20.945312 9.953125 20.921875 9.929688 20.921875 9.898438 C 20.921875 9.871094 20.945312 9.847656 20.972656 9.847656 L 25.675781 9.847656 C 25.800781 9.847656 25.914062 9.800781 25.980469 9.71875 C 26.015625 9.679688 26.050781 9.617188 26.035156 9.535156 L 25.503906 6.664062 C 25.480469 6.527344 25.324219 6.425781 25.144531 6.425781 L 18.488281 6.425781 C 18.363281 6.425781 18.246094 6.472656 18.179688 6.554688 C 18.148438 6.59375 18.113281 6.65625 18.128906 6.738281 L 18.375 8.085938 C 18.382812 8.113281 18.363281 8.140625 18.335938 8.144531 C 18.304688 8.148438 18.277344 8.132812 18.273438 8.105469 L 18.027344 6.757812 C 18.007812 6.664062 18.035156 6.566406 18.101562 6.488281 C 18.1875 6.382812 18.332031 6.320312 18.488281 6.320312 L 25.144531 6.320312 C 25.378906 6.320312 25.574219 6.457031 25.605469 6.644531 L 26.136719 9.515625 C 26.152344 9.609375 26.128906 9.707031 26.0625 9.785156 C 25.976562 9.890625 25.832031 9.953125 25.675781 9.953125 " fill-opacity="1" fill-rule="nonzero"/><path fill="#8b8c8f" d="M 20.097656 23.621094 C 19.402344 23.679688 18.792969 23.164062 18.734375 22.46875 C 18.675781 21.777344 19.1875 21.164062 19.882812 21.105469 C 20.578125 21.046875 21.1875 21.5625 21.246094 22.253906 C 21.304688 22.949219 20.792969 23.558594 20.097656 23.621094 Z M 22.363281 21.625 C 22.355469 21.597656 22.328125 21.574219 22.300781 21.574219 L 21.867188 21.578125 C 21.84375 21.578125 21.820312 21.5625 21.8125 21.539062 C 21.777344 21.460938 21.738281 21.386719 21.695312 21.316406 C 21.679688 21.296875 21.679688 21.269531 21.695312 21.25 L 21.9375 20.894531 C 21.953125 20.867188 21.953125 20.835938 21.933594 20.8125 L 21.675781 20.539062 C 21.65625 20.515625 21.621094 20.511719 21.597656 20.527344 L 21.222656 20.742188 C 21.203125 20.753906 21.175781 20.753906 21.15625 20.738281 C 21.085938 20.691406 21.015625 20.644531 20.941406 20.605469 C 20.921875 20.59375 20.90625 20.570312 20.910156 20.546875 L 20.941406 20.117188 C 20.945312 20.085938 20.925781 20.058594 20.898438 20.050781 L 20.539062 19.9375 C 20.507812 19.929688 20.476562 19.941406 20.464844 19.96875 L 20.25 20.339844 C 20.238281 20.363281 20.214844 20.375 20.1875 20.371094 C 20.105469 20.363281 20.023438 20.363281 19.9375 20.363281 C 19.914062 20.363281 19.890625 20.351562 19.878906 20.328125 L 19.691406 19.941406 C 19.679688 19.914062 19.648438 19.898438 19.621094 19.90625 L 19.253906 19.988281 C 19.222656 19.996094 19.203125 20.023438 19.203125 20.050781 L 19.207031 20.484375 C 19.207031 20.507812 19.191406 20.53125 19.167969 20.542969 C 19.089844 20.574219 19.015625 20.613281 18.945312 20.660156 C 18.925781 20.671875 18.898438 20.671875 18.875 20.65625 L 18.519531 20.414062 C 18.496094 20.398438 18.464844 20.398438 18.441406 20.421875 L 18.167969 20.675781 C 18.144531 20.699219 18.140625 20.730469 18.15625 20.753906 L 18.371094 21.128906 C 18.382812 21.148438 18.382812 21.175781 18.367188 21.195312 C 18.320312 21.265625 18.273438 21.335938 18.234375 21.410156 C 18.222656 21.433594 18.199219 21.445312 18.175781 21.441406 L 17.746094 21.410156 C 17.714844 21.40625 17.6875 21.425781 17.679688 21.457031 L 17.566406 21.816406 C 17.558594 21.84375 17.570312 21.875 17.597656 21.890625 L 17.972656 22.101562 C 17.992188 22.117188 18.003906 22.140625 18.003906 22.164062 C 17.992188 22.246094 17.992188 22.332031 17.992188 22.417969 C 17.992188 22.441406 17.980469 22.464844 17.957031 22.476562 L 17.570312 22.660156 C 17.542969 22.675781 17.527344 22.703125 17.535156 22.734375 L 17.621094 23.101562 C 17.625 23.128906 17.652344 23.152344 17.679688 23.152344 L 18.113281 23.148438 C 18.136719 23.148438 18.160156 23.164062 18.171875 23.1875 C 18.203125 23.265625 18.242188 23.339844 18.289062 23.410156 C 18.300781 23.429688 18.300781 23.457031 18.285156 23.476562 L 18.042969 23.832031 C 18.027344 23.859375 18.027344 23.890625 18.050781 23.914062 L 18.304688 24.1875 C 18.324219 24.210938 18.359375 24.214844 18.382812 24.199219 L 18.757812 23.984375 C 18.777344 23.96875 18.804688 23.972656 18.824219 23.988281 C 18.894531 24.035156 18.964844 24.082031 19.039062 24.121094 C 19.058594 24.132812 19.074219 24.15625 19.070312 24.179688 L 19.039062 24.609375 C 19.035156 24.640625 19.054688 24.667969 19.082031 24.675781 L 19.445312 24.785156 C 19.472656 24.796875 19.503906 24.785156 19.515625 24.757812 L 19.730469 24.382812 C 19.742188 24.363281 19.765625 24.351562 19.792969 24.351562 C 19.875 24.359375 19.957031 24.363281 20.042969 24.363281 C 20.070312 24.359375 20.09375 24.375 20.101562 24.398438 L 20.289062 24.785156 C 20.300781 24.8125 20.332031 24.828125 20.359375 24.820312 L 20.726562 24.734375 C 20.757812 24.730469 20.777344 24.703125 20.777344 24.671875 L 20.777344 24.242188 C 20.777344 24.21875 20.789062 24.195312 20.8125 24.183594 C 20.890625 24.148438 20.964844 24.109375 21.035156 24.066406 C 21.058594 24.054688 21.082031 24.054688 21.105469 24.070312 L 21.460938 24.3125 C 21.484375 24.328125 21.515625 24.324219 21.539062 24.304688 L 21.816406 24.046875 C 21.835938 24.027344 21.839844 23.996094 21.828125 23.96875 L 21.609375 23.597656 C 21.597656 23.574219 21.597656 23.550781 21.613281 23.527344 C 21.660156 23.460938 21.707031 23.390625 21.746094 23.316406 C 21.757812 23.292969 21.78125 23.28125 21.808594 23.28125 L 22.234375 23.316406 C 22.265625 23.316406 22.292969 23.300781 22.300781 23.269531 L 22.414062 22.910156 C 22.421875 22.882812 22.410156 22.851562 22.382812 22.835938 L 22.011719 22.621094 C 21.988281 22.609375 21.976562 22.585938 21.980469 22.5625 C 21.988281 22.476562 21.988281 22.394531 21.988281 22.308594 C 21.988281 22.285156 22 22.261719 22.023438 22.25 L 22.410156 22.0625 C 22.4375 22.050781 22.453125 22.019531 22.445312 21.992188 L 22.363281 21.625 " fill-opacity="1" fill-rule="nonzero"/><path fill="#8b8c8f" d="M 24.199219 21.453125 C 23.6875 21.554688 23.191406 21.222656 23.089844 20.714844 C 22.984375 20.203125 23.316406 19.703125 23.828125 19.601562 C 24.339844 19.5 24.835938 19.832031 24.941406 20.339844 C 25.042969 20.851562 24.710938 21.351562 24.199219 21.453125 Z M 25.714844 19.777344 C 25.707031 19.757812 25.6875 19.742188 25.664062 19.746094 L 25.34375 19.785156 C 25.328125 19.785156 25.308594 19.777344 25.300781 19.761719 C 25.265625 19.707031 25.230469 19.652344 25.191406 19.605469 C 25.183594 19.589844 25.179688 19.570312 25.1875 19.554688 L 25.339844 19.269531 C 25.347656 19.25 25.34375 19.226562 25.328125 19.210938 L 25.113281 19.027344 C 25.097656 19.011719 25.070312 19.011719 25.054688 19.023438 L 24.796875 19.21875 C 24.78125 19.230469 24.761719 19.230469 24.742188 19.21875 C 24.6875 19.191406 24.632812 19.164062 24.574219 19.140625 C 24.558594 19.132812 24.546875 19.117188 24.542969 19.097656 L 24.53125 18.773438 C 24.53125 18.753906 24.515625 18.734375 24.492188 18.730469 L 24.214844 18.675781 C 24.195312 18.671875 24.171875 18.683594 24.164062 18.707031 L 24.035156 19 C 24.027344 19.019531 24.011719 19.03125 23.992188 19.03125 C 23.929688 19.03125 23.867188 19.035156 23.804688 19.042969 C 23.789062 19.046875 23.769531 19.039062 23.757812 19.023438 L 23.585938 18.75 C 23.574219 18.730469 23.550781 18.722656 23.53125 18.730469 L 23.265625 18.824219 C 23.242188 18.832031 23.230469 18.851562 23.234375 18.875 L 23.269531 19.195312 C 23.273438 19.214844 23.265625 19.230469 23.246094 19.242188 C 23.195312 19.273438 23.140625 19.308594 23.09375 19.347656 C 23.078125 19.359375 23.058594 19.359375 23.042969 19.351562 L 22.757812 19.203125 C 22.738281 19.191406 22.710938 19.195312 22.699219 19.210938 L 22.515625 19.425781 C 22.5 19.445312 22.5 19.46875 22.511719 19.488281 L 22.707031 19.746094 C 22.714844 19.761719 22.71875 19.78125 22.707031 19.796875 C 22.679688 19.851562 22.652344 19.910156 22.628906 19.96875 C 22.621094 19.984375 22.605469 19.996094 22.585938 19.996094 L 22.261719 20.007812 C 22.242188 20.007812 22.222656 20.027344 22.21875 20.046875 L 22.164062 20.324219 C 22.160156 20.347656 22.171875 20.367188 22.195312 20.378906 L 22.488281 20.503906 C 22.507812 20.511719 22.519531 20.53125 22.519531 20.546875 C 22.519531 20.609375 22.523438 20.671875 22.53125 20.734375 C 22.535156 20.753906 22.527344 20.773438 22.511719 20.78125 L 22.238281 20.953125 C 22.21875 20.964844 22.210938 20.988281 22.21875 21.011719 L 22.3125 21.277344 C 22.320312 21.296875 22.339844 21.3125 22.363281 21.308594 L 22.683594 21.269531 C 22.703125 21.269531 22.71875 21.277344 22.730469 21.292969 C 22.761719 21.347656 22.796875 21.402344 22.835938 21.449219 C 22.847656 21.464844 22.847656 21.484375 22.839844 21.5 L 22.691406 21.785156 C 22.679688 21.804688 22.683594 21.828125 22.699219 21.84375 L 22.914062 22.027344 C 22.933594 22.042969 22.957031 22.042969 22.976562 22.03125 L 23.234375 21.835938 C 23.25 21.824219 23.269531 21.824219 23.285156 21.835938 C 23.339844 21.863281 23.394531 21.890625 23.453125 21.914062 C 23.472656 21.921875 23.484375 21.9375 23.484375 21.957031 L 23.496094 22.28125 C 23.496094 22.300781 23.511719 22.320312 23.535156 22.324219 L 23.8125 22.378906 C 23.835938 22.382812 23.855469 22.371094 23.863281 22.347656 L 23.992188 22.054688 C 24 22.035156 24.015625 22.023438 24.035156 22.023438 C 24.097656 22.023438 24.160156 22.019531 24.222656 22.011719 C 24.242188 22.007812 24.261719 22.015625 24.269531 22.03125 L 24.441406 22.304688 C 24.453125 22.324219 24.476562 22.332031 24.496094 22.324219 L 24.765625 22.230469 C 24.785156 22.222656 24.796875 22.203125 24.796875 22.179688 L 24.757812 21.859375 C 24.753906 21.839844 24.765625 21.824219 24.78125 21.8125 C 24.835938 21.78125 24.886719 21.746094 24.9375 21.707031 C 24.949219 21.695312 24.972656 21.695312 24.988281 21.703125 L 25.273438 21.851562 C 25.292969 21.863281 25.316406 21.859375 25.332031 21.84375 L 25.515625 21.628906 C 25.527344 21.609375 25.53125 21.585938 25.515625 21.566406 L 25.324219 21.308594 C 25.3125 21.292969 25.3125 21.273438 25.320312 21.257812 C 25.351562 21.203125 25.378906 21.144531 25.402344 21.089844 C 25.410156 21.070312 25.425781 21.058594 25.445312 21.058594 L 25.765625 21.046875 C 25.789062 21.046875 25.808594 21.027344 25.8125 21.007812 L 25.863281 20.730469 C 25.867188 20.707031 25.855469 20.6875 25.835938 20.675781 L 25.539062 20.550781 C 25.523438 20.542969 25.511719 20.523438 25.511719 20.507812 C 25.507812 20.445312 25.503906 20.382812 25.496094 20.320312 C 25.492188 20.300781 25.5 20.28125 25.515625 20.273438 L 25.789062 20.101562 C 25.808594 20.089844 25.816406 20.066406 25.808594 20.042969 L 25.714844 19.777344 " fill-opacity="1" fill-rule="nonzero"/><path fill="#e4dd9e" d="M 11.121094 21.859375 C 10.589844 21.863281 10.152344 21.4375 10.148438 20.90625 C 10.144531 20.371094 10.570312 19.9375 11.101562 19.929688 C 11.632812 19.925781 12.070312 20.351562 12.074219 20.882812 C 12.082031 21.417969 11.652344 21.851562 11.121094 21.859375 Z M 12.960938 20.46875 C 12.957031 20.445312 12.9375 20.425781 12.917969 20.425781 L 12.589844 20.402344 C 12.570312 20.402344 12.550781 20.390625 12.546875 20.371094 C 12.523438 20.308594 12.5 20.25 12.46875 20.195312 C 12.460938 20.175781 12.460938 20.15625 12.472656 20.140625 L 12.679688 19.886719 C 12.695312 19.867188 12.695312 19.84375 12.679688 19.824219 L 12.5 19.597656 C 12.484375 19.582031 12.460938 19.578125 12.441406 19.585938 L 12.144531 19.730469 C 12.128906 19.738281 12.105469 19.734375 12.09375 19.722656 C 12.042969 19.683594 11.992188 19.644531 11.9375 19.609375 C 11.921875 19.597656 11.914062 19.582031 11.917969 19.5625 L 11.964844 19.234375 C 11.96875 19.214844 11.957031 19.191406 11.933594 19.183594 L 11.667969 19.078125 C 11.644531 19.070312 11.621094 19.078125 11.609375 19.097656 L 11.425781 19.371094 C 11.414062 19.386719 11.394531 19.394531 11.375 19.390625 C 11.3125 19.378906 11.25 19.371094 11.1875 19.367188 C 11.167969 19.367188 11.148438 19.355469 11.140625 19.339844 L 11.023438 19.03125 C 11.015625 19.011719 10.992188 18.996094 10.96875 19 L 10.6875 19.042969 C 10.664062 19.046875 10.644531 19.066406 10.644531 19.089844 L 10.621094 19.417969 C 10.621094 19.4375 10.605469 19.453125 10.589844 19.460938 C 10.527344 19.480469 10.46875 19.507812 10.414062 19.535156 C 10.394531 19.546875 10.375 19.542969 10.359375 19.53125 L 10.105469 19.324219 C 10.085938 19.3125 10.0625 19.3125 10.042969 19.324219 L 9.816406 19.507812 C 9.800781 19.519531 9.796875 19.542969 9.804688 19.566406 L 9.949219 19.863281 C 9.957031 19.878906 9.953125 19.898438 9.941406 19.914062 C 9.902344 19.960938 9.863281 20.015625 9.828125 20.066406 C 9.816406 20.085938 9.800781 20.09375 9.78125 20.089844 L 9.457031 20.039062 C 9.433594 20.039062 9.410156 20.050781 9.402344 20.070312 L 9.296875 20.339844 C 9.289062 20.359375 9.296875 20.382812 9.316406 20.398438 L 9.589844 20.582031 C 9.605469 20.59375 9.613281 20.613281 9.609375 20.628906 C 9.597656 20.691406 9.589844 20.757812 9.585938 20.820312 C 9.585938 20.839844 9.574219 20.855469 9.558594 20.863281 L 9.25 20.984375 C 9.230469 20.992188 9.214844 21.015625 9.21875 21.035156 L 9.261719 21.320312 C 9.265625 21.34375 9.285156 21.359375 9.308594 21.363281 L 9.636719 21.386719 C 9.65625 21.386719 9.671875 21.398438 9.679688 21.417969 C 9.699219 21.480469 9.726562 21.539062 9.753906 21.59375 C 9.761719 21.613281 9.761719 21.632812 9.75 21.648438 L 9.542969 21.902344 C 9.53125 21.921875 9.53125 21.945312 9.542969 21.964844 L 9.722656 22.191406 C 9.738281 22.207031 9.761719 22.210938 9.785156 22.203125 L 10.078125 22.058594 C 10.097656 22.050781 10.117188 22.054688 10.132812 22.066406 C 10.179688 22.105469 10.230469 22.144531 10.285156 22.179688 C 10.300781 22.191406 10.3125 22.207031 10.308594 22.226562 L 10.257812 22.550781 C 10.253906 22.574219 10.269531 22.597656 10.289062 22.605469 L 10.558594 22.710938 C 10.578125 22.71875 10.601562 22.710938 10.613281 22.691406 L 10.800781 22.417969 C 10.808594 22.402344 10.828125 22.394531 10.847656 22.398438 C 10.910156 22.410156 10.972656 22.417969 11.039062 22.421875 C 11.058594 22.421875 11.074219 22.433594 11.082031 22.449219 L 11.203125 22.757812 C 11.210938 22.777344 11.230469 22.792969 11.253906 22.789062 L 11.539062 22.746094 C 11.5625 22.742188 11.578125 22.722656 11.578125 22.699219 L 11.601562 22.371094 C 11.605469 22.351562 11.617188 22.335938 11.636719 22.328125 C 11.695312 22.308594 11.753906 22.28125 11.8125 22.253906 C 11.828125 22.242188 11.847656 22.246094 11.863281 22.257812 L 12.121094 22.464844 C 12.136719 22.476562 12.164062 22.476562 12.179688 22.464844 L 12.40625 22.28125 C 12.421875 22.269531 12.429688 22.246094 12.417969 22.222656 L 12.273438 21.925781 C 12.265625 21.910156 12.269531 21.890625 12.28125 21.875 C 12.324219 21.828125 12.359375 21.773438 12.394531 21.722656 C 12.40625 21.703125 12.425781 21.695312 12.445312 21.699219 L 12.769531 21.75 C 12.792969 21.75 12.8125 21.738281 12.820312 21.71875 L 12.925781 21.449219 C 12.933594 21.429688 12.925781 21.402344 12.910156 21.390625 L 12.636719 21.207031 C 12.621094 21.195312 12.613281 21.175781 12.617188 21.160156 C 12.625 21.097656 12.632812 21.03125 12.636719 20.96875 C 12.636719 20.949219 12.648438 20.933594 12.667969 20.925781 L 12.972656 20.804688 C 12.996094 20.796875 13.007812 20.773438 13.003906 20.753906 L 12.960938 20.46875 " fill-opacity="1" fill-rule="nonzero"/><path fill="#8b8c8f" d="M 11.84375 10.761719 L 13.261719 10.066406 C 14.414062 9.5 15.492188 8.789062 16.464844 7.953125 L 16.535156 7.519531 C 16.535156 7.519531 17.015625 7.527344 17.117188 7.519531 C 17.25 7.511719 17.382812 7.558594 17.484375 7.65625 C 18.539062 8.691406 19.742188 9.5625 21.050781 10.246094 L 21.976562 10.730469 C 22.191406 10.84375 22.273438 11.039062 22.207031 11.324219 L 20.996094 16.441406 C 20.46875 17.871094 18.34375 19.785156 17.152344 20.785156 C 16.933594 20.964844 16.667969 21.054688 16.402344 21.050781 C 16.285156 21.050781 15.800781 21.066406 15.800781 21.066406 C 15.800781 21.066406 15.695312 20.863281 15.5625 20.722656 C 14.488281 19.632812 12.601562 17.53125 12.222656 15.878906 L 11.585938 11.304688 C 11.535156 11.085938 11.644531 10.863281 11.84375 10.761719 " fill-opacity="1" fill-rule="nonzero"/><path fill="#e4dd9e" d="M 11.308594 10.789062 L 12.714844 10.101562 C 13.859375 9.539062 14.925781 8.832031 15.890625 8 L 16.253906 7.6875 C 16.441406 7.527344 16.722656 7.535156 16.902344 7.707031 C 17.949219 8.734375 19.140625 9.597656 20.441406 10.277344 L 21.363281 10.757812 C 21.574219 10.867188 21.671875 11.121094 21.589844 11.347656 L 20.386719 16.421875 C 19.863281 17.84375 17.734375 19.761719 16.550781 20.75 C 16.089844 21.132812 15.414062 21.101562 14.996094 20.671875 C 13.929688 19.589844 12.058594 17.507812 11.679688 15.867188 L 11.050781 11.328125 C 11.003906 11.113281 11.109375 10.890625 11.308594 10.789062 " fill-opacity="1" fill-rule="nonzero"/><path fill="#e13a2a" d="M 12.171875 11.394531 L 13.335938 10.820312 C 14.285156 10.355469 15.167969 9.773438 15.96875 9.082031 L 16.265625 8.824219 C 16.421875 8.691406 16.65625 8.695312 16.804688 8.839844 C 17.671875 9.691406 18.660156 10.40625 19.734375 10.96875 L 20.496094 11.367188 C 20.671875 11.457031 20.753906 11.667969 20.683594 11.855469 L 19.691406 16.058594 C 19.257812 17.234375 17.492188 18.820312 16.511719 19.640625 C 16.132812 19.957031 15.570312 19.929688 15.226562 19.578125 C 14.34375 18.679688 12.792969 16.953125 12.480469 15.59375 L 11.960938 11.839844 C 11.917969 11.660156 12.007812 11.476562 12.171875 11.394531 " fill-opacity="1" fill-rule="nonzero"/><path fill="#000000" d="M 15.816406 21.066406 C 15.503906 21.066406 15.191406 20.945312 14.957031 20.710938 C 13.878906 19.613281 12.011719 17.527344 11.628906 15.878906 C 11.628906 15.875 11.628906 15.875 11.628906 15.875 L 11.46875 14.699219 C 11.464844 14.671875 11.484375 14.644531 11.511719 14.640625 C 11.539062 14.636719 11.566406 14.65625 11.570312 14.6875 L 11.730469 15.855469 C 12.109375 17.480469 13.960938 19.550781 15.03125 20.636719 C 15.429688 21.042969 16.082031 21.074219 16.515625 20.710938 C 17.722656 19.707031 19.820312 17.8125 20.335938 16.410156 L 21.539062 11.335938 C 21.539062 11.332031 21.539062 11.332031 21.539062 11.328125 C 21.613281 11.128906 21.527344 10.902344 21.335938 10.804688 L 20.417969 10.324219 C 19.113281 9.640625 17.917969 8.773438 16.867188 7.746094 C 16.707031 7.589844 16.457031 7.582031 16.289062 7.726562 L 15.925781 8.039062 C 14.957031 8.875 13.882812 9.582031 12.738281 10.148438 L 11.332031 10.835938 C 11.152344 10.925781 11.058594 11.121094 11.101562 11.316406 C 11.101562 11.320312 11.101562 11.320312 11.105469 11.320312 L 11.375 13.269531 C 11.378906 13.296875 11.359375 13.324219 11.328125 13.328125 C 11.300781 13.332031 11.273438 13.3125 11.269531 13.28125 L 11 11.339844 C 10.945312 11.097656 11.0625 10.851562 11.285156 10.746094 L 12.691406 10.054688 C 13.832031 9.496094 14.894531 8.789062 15.859375 7.960938 L 16.21875 7.648438 C 16.429688 7.46875 16.738281 7.476562 16.9375 7.671875 C 17.984375 8.695312 19.171875 9.554688 20.464844 10.230469 L 21.386719 10.710938 C 21.621094 10.832031 21.730469 11.113281 21.640625 11.363281 L 20.4375 16.433594 C 20.4375 16.4375 20.4375 16.441406 20.4375 16.441406 C 19.910156 17.867188 17.796875 19.777344 16.582031 20.792969 C 16.363281 20.976562 16.089844 21.066406 15.816406 21.066406 " fill-opacity="1" fill-rule="nonzero"/><path fill="#e4dd9e" d="M 17.132812 12.621094 L 17.113281 11.273438 C 17.101562 10.839844 16.757812 10.480469 16.324219 10.460938 C 15.84375 10.441406 15.445312 10.832031 15.457031 11.3125 L 15.46875 11.730469 C 15.46875 11.875 15.351562 11.992188 15.203125 11.988281 C 15.070312 11.980469 14.964844 11.871094 14.960938 11.738281 L 14.957031 11.339844 C 14.9375 10.570312 15.554688 9.9375 16.351562 9.972656 C 17.007812 10 17.609375 10.578125 17.625 11.28125 L 17.640625 12.640625 L 17.132812 12.621094 " fill-opacity="1" fill-rule="nonzero"/><path fill="#000000" d="M 17.183594 12.570312 L 17.589844 12.585938 L 17.570312 11.28125 C 17.558594 10.625 16.996094 10.050781 16.347656 10.023438 C 16.34375 10.023438 16.34375 10.023438 16.339844 10.023438 C 15.976562 10.011719 15.640625 10.140625 15.390625 10.386719 C 15.136719 10.636719 15 10.976562 15.007812 11.339844 L 15.015625 11.738281 C 15.015625 11.84375 15.101562 11.929688 15.207031 11.933594 C 15.261719 11.9375 15.316406 11.917969 15.355469 11.878906 C 15.394531 11.839844 15.417969 11.785156 15.414062 11.730469 L 15.40625 11.3125 C 15.398438 11.070312 15.496094 10.832031 15.671875 10.660156 C 15.847656 10.488281 16.082031 10.398438 16.324219 10.410156 C 16.785156 10.429688 17.152344 10.808594 17.164062 11.273438 Z M 17.640625 12.691406 L 17.132812 12.671875 C 17.105469 12.671875 17.082031 12.648438 17.082031 12.621094 L 17.0625 11.273438 C 17.050781 10.867188 16.726562 10.53125 16.320312 10.515625 C 16.105469 10.503906 15.898438 10.582031 15.746094 10.734375 C 15.589844 10.886719 15.503906 11.09375 15.507812 11.308594 L 15.519531 11.726562 C 15.519531 11.8125 15.488281 11.890625 15.429688 11.953125 C 15.367188 12.011719 15.285156 12.042969 15.203125 12.039062 C 15.039062 12.03125 14.914062 11.902344 14.910156 11.738281 L 14.90625 11.34375 C 14.894531 10.949219 15.042969 10.582031 15.320312 10.3125 C 15.59375 10.042969 15.960938 9.902344 16.351562 9.917969 C 16.355469 9.917969 16.359375 9.921875 16.359375 9.921875 C 17.058594 9.953125 17.660156 10.574219 17.675781 11.277344 L 17.691406 12.640625 C 17.691406 12.652344 17.6875 12.667969 17.675781 12.675781 C 17.667969 12.6875 17.65625 12.691406 17.640625 12.691406 " fill-opacity="1" fill-rule="nonzero"/><path fill="#8b8c8f" d="M 16.570312 16.320312 L 16.003906 16.34375 C 15.21875 16.324219 14.523438 15.382812 14.597656 14.277344 L 14.714844 12.511719 L 18.058594 12.484375 C 18.355469 12.484375 18.601562 12.75 18.582031 13.042969 L 18.480469 14.535156 C 18.410156 15.539062 17.578125 16.320312 16.570312 16.320312 " fill-opacity="1" fill-rule="nonzero"/><path fill="#e4dd9e" d="M 16.023438 16.292969 C 14.917969 16.292969 14.039062 15.355469 14.113281 14.25 L 14.230469 12.539062 L 17.765625 12.539062 C 17.925781 12.539062 18.054688 12.675781 18.046875 12.839844 L 17.933594 14.507812 C 17.863281 15.511719 17.03125 16.292969 16.023438 16.292969 " fill-opacity="1" fill-rule="nonzero"/><path fill="#000000" d="M 16.023438 16.34375 C 15.054688 16.34375 14.21875 15.625 14.078125 14.664062 C 14.074219 14.636719 14.09375 14.609375 14.125 14.605469 C 14.152344 14.601562 14.179688 14.621094 14.183594 14.652344 C 14.3125 15.558594 15.105469 16.242188 16.023438 16.242188 C 17 16.242188 17.816406 15.480469 17.878906 14.507812 L 17.992188 12.824219 C 18 12.765625 17.976562 12.707031 17.933594 12.660156 C 17.894531 12.613281 17.835938 12.589844 17.773438 12.589844 L 14.507812 12.589844 C 14.378906 12.589844 14.273438 12.691406 14.265625 12.816406 L 14.25 13.050781 C 14.246094 13.082031 14.222656 13.101562 14.191406 13.101562 C 14.164062 13.097656 14.144531 13.074219 14.144531 13.046875 L 14.160156 12.8125 C 14.171875 12.628906 14.324219 12.488281 14.507812 12.488281 L 17.773438 12.488281 C 17.863281 12.488281 17.949219 12.523438 18.011719 12.589844 C 18.070312 12.65625 18.105469 12.742188 18.097656 12.832031 L 17.984375 14.511719 C 17.914062 15.539062 17.054688 16.34375 16.023438 16.34375 " fill-opacity="1" fill-rule="nonzero"/><path fill="#000000" d="M 15.980469 15.210938 C 15.890625 15.210938 15.816406 15.132812 15.824219 15.042969 L 15.910156 13.710938 C 15.914062 13.628906 15.980469 13.566406 16.066406 13.566406 C 16.15625 13.566406 16.226562 13.640625 16.21875 13.730469 L 16.136719 15.0625 C 16.128906 15.144531 16.0625 15.210938 15.980469 15.210938 " fill-opacity="1" fill-rule="nonzero"/><path fill="#000000" d="M 16.609375 13.832031 C 16.609375 14.148438 16.351562 14.40625 16.035156 14.40625 C 15.714844 14.40625 15.460938 14.148438 15.460938 13.832031 C 15.460938 13.515625 15.714844 13.257812 16.035156 13.257812 C 16.351562 13.257812 16.609375 13.515625 16.609375 13.832031 " fill-opacity="1" fill-rule="nonzero"/><path fill="#d2d8e6" d="M 13.589844 15.785156 C 13.289062 15.785156 13 15.617188 12.773438 15.3125 C 12.757812 15.289062 12.761719 15.257812 12.785156 15.238281 C 12.808594 15.222656 12.839844 15.226562 12.859375 15.25 C 13.0625 15.527344 13.324219 15.683594 13.589844 15.683594 C 14.222656 15.683594 14.738281 14.839844 14.738281 13.804688 C 14.738281 12.769531 14.222656 11.925781 13.589844 11.925781 C 13.320312 11.925781 13.054688 12.085938 12.847656 12.371094 C 12.832031 12.394531 12.796875 12.402344 12.773438 12.382812 C 12.75 12.367188 12.746094 12.335938 12.761719 12.3125 C 12.992188 11.996094 13.285156 11.820312 13.589844 11.820312 C 14.28125 11.820312 14.84375 12.710938 14.84375 13.804688 C 14.84375 14.898438 14.28125 15.785156 13.589844 15.785156 " fill-opacity="1" fill-rule="nonzero"/><path fill="#d2d8e6" d="M 14.96875 14.503906 C 14.941406 14.503906 14.917969 14.480469 14.917969 14.453125 C 14.917969 14.421875 14.941406 14.398438 14.96875 14.398438 C 15.160156 14.398438 15.320312 14.128906 15.320312 13.804688 C 15.320312 13.480469 15.160156 13.207031 14.96875 13.207031 C 14.941406 13.207031 14.917969 13.183594 14.917969 13.15625 C 14.917969 13.128906 14.941406 13.105469 14.96875 13.105469 C 15.222656 13.105469 15.421875 13.410156 15.421875 13.804688 C 15.421875 14.195312 15.222656 14.503906 14.96875 14.503906 " fill-opacity="1" fill-rule="nonzero"/><path fill="#d2d8e6" d="M 12.507812 14.191406 C 12.28125 14.191406 12.097656 14.007812 12.097656 13.78125 C 12.097656 13.554688 12.28125 13.371094 12.507812 13.371094 C 12.734375 13.371094 12.917969 13.554688 12.917969 13.78125 C 12.917969 14.007812 12.734375 14.191406 12.507812 14.191406 Z M 15.960938 13.5625 L 14.128906 13.5625 C 14.007812 12.902344 13.507812 12.554688 12.910156 12.554688 C 12.21875 12.554688 11.664062 13.101562 11.664062 13.789062 C 11.664062 14.480469 12.21875 15.035156 12.910156 15.035156 C 13.496094 15.035156 13.988281 14.632812 14.117188 14.082031 L 15.960938 14.082031 C 16.113281 14.082031 16.234375 13.972656 16.234375 13.820312 C 16.234375 13.667969 16.113281 13.5625 15.960938 13.5625 " fill-opacity="1" fill-rule="nonzero"/><path fill="#000000" d="M 12.507812 13.421875 C 12.3125 13.421875 12.148438 13.585938 12.148438 13.78125 C 12.148438 13.980469 12.3125 14.140625 12.507812 14.140625 C 12.707031 14.140625 12.867188 13.980469 12.867188 13.78125 C 12.867188 13.585938 12.707031 13.421875 12.507812 13.421875 Z M 12.507812 14.246094 C 12.253906 14.246094 12.046875 14.035156 12.046875 13.78125 C 12.046875 13.527344 12.253906 13.320312 12.507812 13.320312 C 12.765625 13.320312 12.972656 13.527344 12.972656 13.78125 C 12.972656 14.035156 12.765625 14.246094 12.507812 14.246094 Z M 12.910156 12.605469 C 12.25 12.605469 11.714844 13.136719 11.714844 13.789062 C 11.714844 14.449219 12.25 14.984375 12.910156 14.984375 C 13.464844 14.984375 13.941406 14.605469 14.070312 14.066406 C 14.074219 14.046875 14.09375 14.027344 14.117188 14.027344 L 15.960938 14.027344 C 16.089844 14.027344 16.183594 13.9375 16.183594 13.820312 C 16.183594 13.703125 16.089844 13.613281 15.960938 13.613281 L 14.128906 13.613281 C 14.101562 13.613281 14.082031 13.59375 14.074219 13.570312 C 13.96875 12.976562 13.523438 12.605469 12.910156 12.605469 Z M 12.910156 15.085938 C 12.191406 15.085938 11.609375 14.503906 11.609375 13.789062 C 11.609375 13.082031 12.191406 12.503906 12.910156 12.503906 C 13.558594 12.503906 14.039062 12.886719 14.171875 13.507812 L 15.960938 13.507812 C 16.144531 13.507812 16.289062 13.644531 16.289062 13.820312 C 16.289062 13.996094 16.144531 14.132812 15.960938 14.132812 L 14.160156 14.132812 C 14.007812 14.695312 13.496094 15.085938 12.910156 15.085938 " fill-opacity="1" fill-rule="nonzero"/><path fill="#e4dd9e" d="M 5.644531 26.574219 L 5.535156 27.703125 C 5.535156 27.734375 5.554688 27.765625 5.582031 27.765625 L 6.144531 27.800781 C 6.167969 27.804688 6.1875 27.78125 6.191406 27.757812 L 6.296875 26.730469 L 5.644531 26.574219 " fill-opacity="1" fill-rule="nonzero"/><path fill="#000000" d="M 5.589844 27.714844 Z M 5.589844 27.714844 L 6.140625 27.75 L 6.238281 26.769531 L 5.691406 26.636719 L 5.589844 27.707031 C 5.589844 27.710938 5.589844 27.714844 5.589844 27.714844 Z M 6.148438 27.851562 C 6.144531 27.851562 6.140625 27.851562 6.140625 27.851562 L 5.578125 27.816406 C 5.554688 27.816406 5.527344 27.804688 5.511719 27.78125 C 5.492188 27.757812 5.480469 27.730469 5.484375 27.699219 L 5.59375 26.570312 C 5.59375 26.554688 5.601562 26.539062 5.613281 26.53125 C 5.625 26.523438 5.640625 26.519531 5.65625 26.523438 L 6.308594 26.679688 C 6.332031 26.683594 6.351562 26.707031 6.347656 26.734375 L 6.242188 27.761719 C 6.238281 27.816406 6.195312 27.851562 6.148438 27.851562 " fill-opacity="1" fill-rule="nonzero"/><path fill="#8b8c8f" d="M 5.449219 27.410156 C 5.410156 27.542969 5.332031 27.921875 5.300781 28.148438 C 5.28125 28.289062 5.367188 28.421875 5.507812 28.460938 C 5.894531 28.566406 6.820312 28.5625 7.59375 28.59375 C 7.648438 28.597656 7.746094 28.570312 7.789062 28.441406 C 7.933594 28.007812 7.125 27.875 6.320312 27.433594 C 6.304688 27.421875 6.285156 27.425781 6.269531 27.433594 C 6.261719 27.441406 6.25 27.449219 6.238281 27.457031 C 6.097656 27.546875 5.863281 27.546875 5.722656 27.460938 L 5.5625 27.367188 C 5.519531 27.339844 5.460938 27.363281 5.449219 27.410156 " fill-opacity="1" fill-rule="nonzero"/><path fill="#000000" d="M 5.449219 27.410156 Z M 5.523438 27.40625 C 5.519531 27.40625 5.515625 27.40625 5.515625 27.40625 C 5.507812 27.410156 5.5 27.414062 5.5 27.425781 C 5.460938 27.558594 5.382812 27.9375 5.351562 28.15625 C 5.335938 28.269531 5.40625 28.378906 5.519531 28.410156 C 5.800781 28.488281 6.402344 28.503906 6.984375 28.523438 C 7.1875 28.527344 7.398438 28.535156 7.597656 28.542969 C 7.613281 28.542969 7.699219 28.542969 7.738281 28.425781 C 7.820312 28.179688 7.53125 28.039062 7.007812 27.8125 C 6.789062 27.71875 6.542969 27.613281 6.296875 27.480469 C 6.289062 27.484375 6.277344 27.492188 6.265625 27.503906 C 6.109375 27.601562 5.855469 27.601562 5.695312 27.507812 L 5.535156 27.410156 C 5.53125 27.40625 5.527344 27.40625 5.523438 27.40625 Z M 7.601562 28.648438 C 7.597656 28.648438 7.59375 28.648438 7.59375 28.648438 C 7.394531 28.636719 7.183594 28.632812 6.980469 28.625 C 6.367188 28.605469 5.789062 28.589844 5.492188 28.511719 C 5.328125 28.464844 5.222656 28.308594 5.25 28.140625 C 5.28125 27.914062 5.359375 27.535156 5.398438 27.398438 C 5.410156 27.359375 5.4375 27.328125 5.476562 27.3125 C 5.511719 27.296875 5.554688 27.300781 5.589844 27.320312 L 5.75 27.417969 C 5.875 27.492188 6.085938 27.492188 6.207031 27.414062 C 6.222656 27.40625 6.234375 27.398438 6.242188 27.390625 C 6.273438 27.371094 6.3125 27.367188 6.347656 27.386719 C 6.585938 27.519531 6.832031 27.625 7.046875 27.71875 C 7.554688 27.9375 7.953125 28.113281 7.835938 28.460938 C 7.789062 28.597656 7.683594 28.648438 7.601562 28.648438 " fill-opacity="1" fill-rule="nonzero"/><path fill="#e4dd9e" d="M 5.277344 28.25 C 5.277344 28.253906 5.273438 28.257812 5.273438 28.257812 C 5.253906 28.398438 5.390625 28.488281 5.519531 28.546875 C 5.902344 28.726562 7.445312 28.625 7.503906 28.621094 C 7.503906 28.621094 7.507812 28.621094 7.507812 28.621094 C 7.527344 28.621094 7.722656 28.621094 7.777344 28.496094 C 7.785156 28.484375 7.789062 28.460938 7.792969 28.441406 C 7.796875 28.410156 7.796875 28.375 7.789062 28.34375 C 7.78125 28.316406 7.757812 28.300781 7.730469 28.308594 C 7.445312 28.382812 6.773438 28.40625 6.105469 28.332031 C 5.660156 28.28125 5.46875 28.1875 5.367188 28.125 C 5.335938 28.109375 5.300781 28.125 5.296875 28.15625 C 5.289062 28.183594 5.28125 28.214844 5.277344 28.25 " fill-opacity="1" fill-rule="nonzero"/><path fill="#000000" d="M 5.277344 28.25 Z M 5.34375 28.171875 L 5.328125 28.257812 L 5.328125 28.265625 C 5.3125 28.351562 5.378906 28.425781 5.539062 28.5 C 5.835938 28.640625 6.953125 28.605469 7.5 28.566406 C 7.5 28.566406 7.507812 28.566406 7.507812 28.566406 C 7.570312 28.570312 7.699219 28.550781 7.730469 28.476562 C 7.734375 28.472656 7.738281 28.460938 7.742188 28.433594 C 7.746094 28.410156 7.742188 28.386719 7.738281 28.359375 C 7.460938 28.429688 6.796875 28.460938 6.101562 28.382812 C 5.664062 28.335938 5.460938 28.242188 5.34375 28.171875 Z M 6.535156 28.707031 C 6.113281 28.707031 5.683594 28.679688 5.496094 28.59375 C 5.414062 28.554688 5.195312 28.453125 5.222656 28.25 C 5.222656 28.25 5.226562 28.246094 5.226562 28.238281 L 5.242188 28.144531 C 5.25 28.113281 5.273438 28.085938 5.300781 28.074219 C 5.332031 28.0625 5.363281 28.0625 5.390625 28.078125 C 5.5 28.144531 5.6875 28.234375 6.113281 28.28125 C 6.800781 28.355469 7.453125 28.324219 7.71875 28.257812 C 7.742188 28.25 7.769531 28.253906 7.792969 28.269531 C 7.816406 28.28125 7.832031 28.304688 7.839844 28.332031 C 7.847656 28.371094 7.851562 28.410156 7.84375 28.449219 C 7.839844 28.476562 7.835938 28.5 7.828125 28.519531 C 7.757812 28.667969 7.546875 28.671875 7.507812 28.671875 C 7.421875 28.675781 6.984375 28.707031 6.535156 28.707031 " fill-opacity="1" fill-rule="nonzero"/><path fill="#000000" d="M 6.375 27.835938 C 6.359375 27.835938 6.34375 27.828125 6.335938 27.816406 C 6.316406 27.792969 6.320312 27.757812 6.34375 27.742188 L 6.578125 27.5625 C 6.601562 27.546875 6.632812 27.550781 6.652344 27.574219 C 6.667969 27.597656 6.664062 27.628906 6.640625 27.644531 L 6.40625 27.824219 C 6.398438 27.832031 6.386719 27.835938 6.375 27.835938 " fill-opacity="1" fill-rule="nonzero"/><path fill="#000000" d="M 6.6875 27.960938 C 6.671875 27.960938 6.65625 27.957031 6.644531 27.941406 C 6.628906 27.917969 6.632812 27.886719 6.65625 27.871094 L 6.859375 27.714844 C 6.882812 27.699219 6.917969 27.703125 6.933594 27.726562 C 6.949219 27.75 6.945312 27.78125 6.921875 27.796875 L 6.71875 27.953125 C 6.707031 27.960938 6.699219 27.960938 6.6875 27.960938 " fill-opacity="1" fill-rule="nonzero"/><path fill="#8b8c8f" d="M 3.976562 16.128906 C 3.976562 16.128906 3.53125 17.019531 3.382812 17.957031 C 3.242188 18.828125 2.730469 22.425781 1.480469 25.3125 C 1.339844 25.640625 1.503906 25.980469 1.851562 26.054688 C 1.988281 26.085938 2.046875 26.035156 2.167969 25.976562 C 2.230469 25.945312 2.335938 25.859375 2.335938 25.859375 C 2.335938 25.859375 4.546875 24.011719 5.445312 19.160156 C 6.027344 16.042969 5.929688 16.289062 5.929688 16.289062 L 3.976562 16.128906 " fill-opacity="1" fill-rule="nonzero"/><path fill="#8b8c8f" d="M 4.597656 16.535156 C 4.597656 16.535156 4.335938 18.226562 4.828125 19.480469 C 5.300781 20.683594 5.601562 25.402344 5.425781 26.769531 C 5.414062 26.855469 5.472656 26.933594 5.558594 26.945312 C 5.773438 26.972656 6.160156 27.015625 6.425781 26.964844 C 6.476562 26.957031 6.515625 26.921875 6.527344 26.871094 C 6.703125 26.179688 8.152344 19.925781 7.128906 16.722656 L 4.597656 16.535156 " fill-opacity="1" fill-rule="nonzero"/><path fill="#d2d8e6" d="M 5.09375 20.945312 C 5.066406 20.945312 5.042969 20.925781 5.042969 20.894531 C 5.042969 20.890625 5.003906 20.292969 4.71875 19.628906 C 4.628906 19.417969 4.566406 19.171875 4.527344 18.890625 C 4.523438 18.863281 4.542969 18.835938 4.570312 18.832031 C 4.601562 18.828125 4.625 18.847656 4.628906 18.875 C 4.667969 19.148438 4.726562 19.386719 4.8125 19.585938 C 5.105469 20.269531 5.144531 20.863281 5.144531 20.890625 C 5.148438 20.917969 5.125 20.945312 5.097656 20.945312 C 5.09375 20.945312 5.09375 20.945312 5.09375 20.945312 " fill-opacity="1" fill-rule="nonzero"/><path fill="#d2d8e6" d="M 5.128906 17.527344 C 5.113281 17.527344 5.101562 17.535156 5.089844 17.542969 C 5.078125 17.554688 5.070312 17.574219 5.070312 17.589844 L 5.121094 18.546875 C 5.128906 18.644531 5.175781 18.734375 5.257812 18.792969 L 5.558594 19.011719 C 5.664062 19.089844 5.804688 19.101562 5.921875 19.050781 L 6.386719 18.839844 C 6.507812 18.785156 6.585938 18.664062 6.582031 18.53125 L 6.550781 17.617188 C 6.550781 17.601562 6.542969 17.589844 6.53125 17.578125 C 6.519531 17.566406 6.503906 17.5625 6.488281 17.5625 C 5.925781 17.621094 5.398438 17.566406 5.136719 17.53125 C 5.132812 17.527344 5.132812 17.527344 5.128906 17.527344 Z M 5.773438 19.183594 C 5.675781 19.183594 5.578125 19.15625 5.496094 19.09375 L 5.195312 18.878906 C 5.089844 18.800781 5.023438 18.683594 5.019531 18.550781 L 4.964844 17.59375 C 4.964844 17.546875 4.984375 17.5 5.019531 17.46875 C 5.054688 17.433594 5.101562 17.421875 5.152344 17.425781 C 5.410156 17.464844 5.925781 17.519531 6.476562 17.460938 C 6.519531 17.457031 6.566406 17.46875 6.601562 17.5 C 6.632812 17.527344 6.652344 17.570312 6.65625 17.617188 L 6.683594 18.53125 C 6.691406 18.703125 6.589844 18.863281 6.429688 18.9375 L 5.964844 19.144531 C 5.90625 19.171875 5.839844 19.183594 5.773438 19.183594 " fill-opacity="1" fill-rule="nonzero"/><path fill="#d2d8e6" d="M 3.53125 18.96875 C 3.496094 18.96875 3.464844 18.957031 3.4375 18.9375 L 3.316406 18.855469 C 3.292969 18.839844 3.285156 18.808594 3.300781 18.785156 C 3.316406 18.761719 3.351562 18.753906 3.375 18.769531 L 3.496094 18.851562 C 3.515625 18.867188 3.539062 18.867188 3.558594 18.859375 L 4.070312 18.597656 C 4.089844 18.589844 4.101562 18.570312 4.101562 18.550781 L 4.21875 17.484375 C 4.222656 17.453125 4.199219 17.425781 4.167969 17.417969 L 3.683594 17.34375 C 3.65625 17.339844 3.636719 17.3125 3.640625 17.285156 C 3.644531 17.253906 3.671875 17.234375 3.699219 17.242188 L 4.183594 17.316406 C 4.269531 17.332031 4.332031 17.410156 4.320312 17.496094 L 4.207031 18.5625 C 4.199219 18.617188 4.167969 18.664062 4.117188 18.691406 L 3.605469 18.949219 C 3.582031 18.960938 3.554688 18.96875 3.53125 18.96875 " fill-opacity="1" fill-rule="nonzero"/><path fill="#e4dd9e" d="M 1.847656 26.601562 C 1.917969 26.261719 1.945312 26.191406 2.109375 25.929688 C 2.230469 25.734375 1.9375 25.4375 1.785156 25.417969 C 1.535156 25.363281 1.574219 25.445312 1.289062 25.8125 L 1.0625 26.089844 C 1.0625 26.089844 1.789062 26.902344 1.847656 26.601562 " fill-opacity="1" fill-rule="nonzero"/><path fill="#000000" d="M 1.78125 26.71875 C 1.574219 26.71875 1.152344 26.269531 1.023438 26.125 C 1.007812 26.105469 1.007812 26.074219 1.023438 26.054688 L 1.234375 25.796875 C 1.3125 25.695312 1.363281 25.617188 1.40625 25.542969 C 1.421875 25.519531 1.453125 25.511719 1.476562 25.527344 C 1.503906 25.539062 1.511719 25.570312 1.496094 25.597656 C 1.449219 25.671875 1.398438 25.753906 1.316406 25.859375 L 1.128906 26.085938 C 1.386719 26.367188 1.699219 26.640625 1.785156 26.617188 C 1.792969 26.613281 1.796875 26.601562 1.796875 26.59375 C 1.859375 26.285156 1.878906 26.195312 2.007812 25.980469 C 2.023438 25.957031 2.054688 25.949219 2.082031 25.960938 C 2.105469 25.976562 2.113281 26.007812 2.097656 26.035156 C 1.976562 26.234375 1.960938 26.3125 1.898438 26.613281 C 1.882812 26.6875 1.839844 26.710938 1.8125 26.714844 C 1.804688 26.71875 1.792969 26.71875 1.78125 26.71875 " fill-opacity="1" fill-rule="nonzero"/><g clip-path="url(#91d704c784)"><path fill="#8b8c8f" d="M 1.886719 26.476562 L 1.597656 26.035156 C 1.460938 25.832031 1.171875 25.800781 0.996094 25.972656 L 0.664062 26.253906 C 0.664062 26.253906 0.601562 26.445312 0.621094 26.566406 C 0.648438 26.730469 0.699219 26.960938 0.800781 27.1875 C 0.953125 27.539062 1.382812 28.242188 1.535156 28.488281 C 1.566406 28.542969 1.644531 28.59375 1.703125 28.566406 C 1.765625 28.539062 1.835938 28.484375 1.902344 28.421875 C 2.003906 28.328125 1.96875 27.878906 1.933594 27.566406 C 1.910156 27.367188 1.925781 26.855469 1.9375 26.644531 C 1.9375 26.585938 1.921875 26.527344 1.886719 26.476562 " fill-opacity="1" fill-rule="nonzero"/></g><g clip-path="url(#acfbb14a5a)"><path fill="#000000" d="M 0.710938 26.28125 C 0.691406 26.34375 0.660156 26.476562 0.671875 26.558594 C 0.699219 26.710938 0.75 26.941406 0.847656 27.167969 C 1.003906 27.519531 1.445312 28.246094 1.578125 28.460938 C 1.601562 28.5 1.65625 28.53125 1.679688 28.519531 C 1.734375 28.496094 1.796875 28.453125 1.867188 28.386719 C 1.890625 28.363281 1.960938 28.238281 1.882812 27.574219 C 1.859375 27.371094 1.875 26.855469 1.882812 26.644531 C 1.886719 26.59375 1.871094 26.546875 1.84375 26.503906 L 1.554688 26.066406 C 1.496094 25.980469 1.40625 25.925781 1.308594 25.914062 C 1.207031 25.90625 1.105469 25.9375 1.035156 26.011719 L 1.03125 26.011719 Z M 1.667969 28.625 C 1.597656 28.625 1.523438 28.570312 1.488281 28.515625 C 1.320312 28.238281 0.90625 27.554688 0.753906 27.207031 C 0.648438 26.972656 0.597656 26.734375 0.570312 26.578125 C 0.546875 26.441406 0.613281 26.246094 0.617188 26.234375 L 0.621094 26.222656 L 0.964844 25.933594 C 1.058594 25.84375 1.1875 25.796875 1.316406 25.8125 C 1.449219 25.824219 1.566406 25.898438 1.640625 26.007812 L 1.929688 26.445312 C 1.972656 26.507812 1.992188 26.578125 1.988281 26.648438 C 1.980469 26.855469 1.960938 27.363281 1.984375 27.5625 C 2.066406 28.25 1.996094 28.40625 1.9375 28.460938 C 1.859375 28.535156 1.789062 28.585938 1.722656 28.613281 C 1.707031 28.621094 1.6875 28.625 1.667969 28.625 " fill-opacity="1" fill-rule="nonzero"/></g><path fill="#000000" d="M 1.921875 27.027344 C 1.917969 27.027344 1.914062 27.027344 1.910156 27.023438 L 1.597656 26.9375 C 1.566406 26.929688 1.550781 26.902344 1.558594 26.875 C 1.566406 26.847656 1.597656 26.832031 1.625 26.839844 L 1.9375 26.925781 C 1.964844 26.933594 1.980469 26.960938 1.972656 26.988281 C 1.964844 27.011719 1.945312 27.027344 1.921875 27.027344 " fill-opacity="1" fill-rule="nonzero"/><path fill="#000000" d="M 1.898438 27.304688 C 1.894531 27.304688 1.890625 27.304688 1.886719 27.304688 L 1.574219 27.21875 C 1.546875 27.210938 1.527344 27.183594 1.535156 27.15625 C 1.542969 27.128906 1.574219 27.109375 1.601562 27.117188 L 1.914062 27.203125 C 1.941406 27.210938 1.957031 27.242188 1.949219 27.269531 C 1.941406 27.292969 1.921875 27.304688 1.898438 27.304688 " fill-opacity="1" fill-rule="nonzero"/><g clip-path="url(#0d66f026ed)"><path fill="#e4dd9e" d="M 1.582031 28.589844 C 1.613281 28.589844 1.640625 28.585938 1.671875 28.574219 C 1.761719 28.542969 1.996094 28.472656 1.972656 28.140625 C 1.945312 27.792969 1.679688 27.613281 1.488281 27.386719 C 1.339844 27.214844 1.355469 26.488281 1.308594 26.34375 C 1.226562 26.089844 0.851562 26.050781 0.664062 26.253906 C 0.546875 26.378906 0.53125 26.65625 0.542969 26.863281 C 0.566406 27.242188 0.789062 28.003906 1.074219 28.371094 C 1.210938 28.550781 1.425781 28.589844 1.582031 28.589844 " fill-opacity="1" fill-rule="nonzero"/></g><g clip-path="url(#95ca0c06a2)"><path fill="#000000" d="M 0.972656 26.175781 C 0.871094 26.175781 0.769531 26.214844 0.703125 26.289062 C 0.621094 26.378906 0.582031 26.585938 0.597656 26.859375 C 0.617188 27.214844 0.828125 27.96875 1.113281 28.339844 C 1.25 28.511719 1.464844 28.539062 1.582031 28.539062 C 1.605469 28.539062 1.628906 28.535156 1.652344 28.527344 L 1.660156 28.523438 C 1.757812 28.492188 1.941406 28.429688 1.917969 28.144531 C 1.898438 27.894531 1.75 27.738281 1.589844 27.574219 C 1.542969 27.527344 1.492188 27.476562 1.449219 27.421875 C 1.339844 27.292969 1.3125 26.9375 1.292969 26.652344 C 1.28125 26.523438 1.273438 26.402344 1.257812 26.359375 C 1.230469 26.269531 1.15625 26.207031 1.050781 26.183594 C 1.023438 26.175781 0.996094 26.175781 0.972656 26.175781 Z M 1.582031 28.640625 C 1.445312 28.640625 1.195312 28.609375 1.03125 28.402344 C 0.734375 28.015625 0.511719 27.234375 0.492188 26.863281 C 0.484375 26.6875 0.488281 26.367188 0.628906 26.21875 C 0.734375 26.097656 0.910156 26.046875 1.074219 26.082031 C 1.214844 26.113281 1.316406 26.203125 1.359375 26.328125 C 1.375 26.382812 1.382812 26.496094 1.394531 26.644531 C 1.414062 26.886719 1.441406 27.25 1.527344 27.355469 C 1.570312 27.40625 1.617188 27.457031 1.664062 27.503906 C 1.832031 27.671875 2 27.847656 2.023438 28.136719 C 2.050781 28.5 1.792969 28.589844 1.695312 28.621094 L 1.6875 28.625 C 1.652344 28.636719 1.617188 28.640625 1.582031 28.640625 " fill-opacity="1" fill-rule="nonzero"/></g><g clip-path="url(#64d95aa449)"><path fill="#000000" d="M 1.582031 28.640625 C 1.542969 28.640625 1.503906 28.640625 1.464844 28.636719 C 1.4375 28.632812 1.417969 28.605469 1.421875 28.578125 C 1.425781 28.546875 1.449219 28.527344 1.480469 28.53125 C 1.511719 28.535156 1.546875 28.539062 1.582031 28.539062 C 1.640625 28.539062 1.695312 28.515625 1.726562 28.480469 C 1.753906 28.445312 1.765625 28.40625 1.757812 28.363281 C 1.714844 28.03125 1.535156 27.859375 1.332031 27.664062 C 1.148438 27.488281 1.105469 26.941406 1.082031 26.648438 C 1.078125 26.582031 1.070312 26.511719 1.066406 26.496094 C 1.050781 26.433594 0.949219 26.351562 0.835938 26.339844 C 0.769531 26.332031 0.675781 26.34375 0.621094 26.453125 C 0.605469 26.480469 0.574219 26.488281 0.550781 26.476562 C 0.523438 26.460938 0.515625 26.429688 0.527344 26.40625 C 0.59375 26.28125 0.707031 26.21875 0.847656 26.234375 C 0.996094 26.253906 1.136719 26.355469 1.167969 26.46875 C 1.171875 26.492188 1.175781 26.542969 1.183594 26.640625 C 1.207031 26.898438 1.246094 27.441406 1.402344 27.589844 C 1.613281 27.789062 1.8125 27.980469 1.863281 28.347656 C 1.871094 28.421875 1.851562 28.492188 1.804688 28.546875 C 1.753906 28.609375 1.671875 28.640625 1.582031 28.640625 " fill-opacity="1" fill-rule="nonzero"/></g><path fill="#e4dd9e" d="M 2.234375 16.929688 C 2.234375 16.929688 1.832031 16.828125 1.730469 16.917969 C 1.703125 16.941406 1.789062 17.464844 1.761719 17.492188 C 1.625 17.617188 1.410156 17.78125 1.363281 17.898438 C 1.292969 18.078125 1.378906 18.609375 1.421875 18.84375 C 1.441406 18.96875 1.613281 18.988281 1.660156 18.871094 C 1.671875 18.839844 1.679688 18.800781 1.675781 18.746094 C 1.660156 18.554688 1.679688 18.414062 1.691406 18.347656 C 1.699219 18.316406 1.714844 18.289062 1.742188 18.269531 C 1.855469 18.1875 2.210938 17.90625 2.265625 17.699219 C 2.269531 17.675781 2.253906 17.609375 2.238281 17.558594 C 2.226562 17.511719 2.21875 17.460938 2.21875 17.410156 L 2.234375 16.929688 " fill-opacity="1" fill-rule="nonzero"/><path fill="#000000" d="M 1.777344 16.949219 C 1.773438 16.992188 1.789062 17.105469 1.796875 17.191406 C 1.824219 17.464844 1.824219 17.503906 1.796875 17.53125 C 1.765625 17.558594 1.726562 17.589844 1.691406 17.621094 C 1.578125 17.71875 1.441406 17.835938 1.410156 17.917969 C 1.367188 18.035156 1.386719 18.378906 1.472656 18.835938 C 1.480469 18.875 1.511719 18.894531 1.539062 18.898438 C 1.550781 18.898438 1.59375 18.898438 1.609375 18.851562 C 1.621094 18.828125 1.625 18.792969 1.625 18.75 C 1.609375 18.550781 1.628906 18.40625 1.640625 18.335938 C 1.648438 18.292969 1.675781 18.257812 1.710938 18.230469 C 1.929688 18.066406 2.175781 17.839844 2.214844 17.6875 C 2.214844 17.6875 2.21875 17.664062 2.191406 17.574219 C 2.171875 17.519531 2.167969 17.464844 2.167969 17.40625 L 2.183594 16.972656 C 2.023438 16.933594 1.839844 16.917969 1.777344 16.949219 Z M 1.546875 19 C 1.539062 19 1.535156 19 1.527344 19 C 1.445312 18.992188 1.382812 18.933594 1.371094 18.855469 C 1.316406 18.570312 1.242188 18.066406 1.316406 17.878906 C 1.355469 17.777344 1.492188 17.65625 1.621094 17.542969 C 1.65625 17.515625 1.6875 17.488281 1.714844 17.464844 C 1.71875 17.421875 1.703125 17.289062 1.691406 17.199219 C 1.664062 16.9375 1.664062 16.902344 1.695312 16.878906 C 1.8125 16.773438 2.175781 16.863281 2.25 16.882812 C 2.273438 16.886719 2.289062 16.910156 2.289062 16.933594 L 2.273438 17.410156 C 2.269531 17.457031 2.277344 17.5 2.289062 17.546875 C 2.320312 17.652344 2.320312 17.691406 2.316406 17.714844 C 2.257812 17.933594 1.917969 18.207031 1.769531 18.3125 C 1.757812 18.324219 1.746094 18.339844 1.742188 18.355469 C 1.730469 18.417969 1.714844 18.554688 1.726562 18.742188 C 1.730469 18.800781 1.722656 18.851562 1.707031 18.890625 C 1.679688 18.960938 1.617188 19 1.546875 19 " fill-opacity="1" fill-rule="nonzero"/><path fill="#e4dd9e" d="M 10.414062 14.324219 C 10.414062 14.328125 10.824219 14.25 11.054688 14.207031 C 11.132812 14.191406 11.214844 14.210938 11.285156 14.25 C 11.285156 14.253906 11.289062 14.253906 11.292969 14.253906 C 11.449219 14.316406 11.660156 14.339844 11.925781 14.230469 C 12.164062 14.128906 12.238281 13.925781 12.28125 13.773438 C 12.304688 13.703125 12.277344 13.628906 12.203125 13.625 C 12.195312 13.625 12.1875 13.625 12.183594 13.625 C 11.582031 13.890625 11.621094 13.71875 11.6875 13.554688 C 11.703125 13.511719 11.339844 13.503906 11.105469 13.65625 C 11.074219 13.675781 10.933594 13.734375 10.851562 13.742188 C 10.460938 13.773438 10.179688 13.753906 10.179688 13.753906 L 10.414062 14.324219 " fill-opacity="1" fill-rule="nonzero"/><path fill="#000000" d="M 10.257812 13.8125 L 10.445312 14.265625 C 10.503906 14.257812 10.652344 14.230469 11.046875 14.15625 C 11.132812 14.140625 11.222656 14.15625 11.308594 14.207031 C 11.308594 14.207031 11.3125 14.207031 11.3125 14.207031 C 11.492188 14.28125 11.691406 14.269531 11.90625 14.179688 C 12.117188 14.09375 12.1875 13.917969 12.234375 13.757812 C 12.242188 13.734375 12.238281 13.707031 12.226562 13.691406 C 12.222656 13.679688 12.210938 13.675781 12.199219 13.675781 C 11.871094 13.820312 11.707031 13.851562 11.632812 13.777344 C 11.578125 13.726562 11.597656 13.644531 11.621094 13.582031 C 11.53125 13.574219 11.300781 13.59375 11.136719 13.699219 C 11.097656 13.722656 10.945312 13.785156 10.855469 13.792969 C 10.585938 13.816406 10.371094 13.8125 10.257812 13.8125 Z M 10.460938 14.300781 L 10.460938 14.304688 C 10.460938 14.300781 10.460938 14.300781 10.460938 14.300781 Z M 10.414062 14.375 C 10.386719 14.375 10.375 14.367188 10.363281 14.339844 L 10.097656 13.699219 L 10.183594 13.703125 C 10.183594 13.703125 10.464844 13.722656 10.847656 13.691406 C 10.917969 13.683594 11.054688 13.628906 11.078125 13.613281 C 11.289062 13.476562 11.644531 13.445312 11.714844 13.503906 C 11.738281 13.523438 11.742188 13.550781 11.734375 13.574219 C 11.691406 13.679688 11.703125 13.699219 11.707031 13.703125 C 11.710938 13.710938 11.769531 13.75 12.164062 13.578125 C 12.179688 13.570312 12.191406 13.570312 12.203125 13.574219 C 12.25 13.574219 12.285156 13.59375 12.3125 13.628906 C 12.34375 13.671875 12.351562 13.730469 12.332031 13.789062 C 12.292969 13.917969 12.21875 14.160156 11.945312 14.277344 C 11.707031 14.378906 11.480469 14.386719 11.273438 14.304688 C 11.269531 14.300781 11.261719 14.296875 11.257812 14.296875 C 11.214844 14.269531 11.144531 14.242188 11.066406 14.257812 C 10.949219 14.28125 10.789062 14.308594 10.660156 14.335938 C 10.59375 14.347656 10.535156 14.355469 10.492188 14.363281 C 10.457031 14.371094 10.433594 14.375 10.414062 14.375 " fill-opacity="1" fill-rule="nonzero"/><path fill="#000000" d="M 11.007812 14.273438 L 10.886719 13.699219 C 10.871094 13.648438 10.820312 13.59375 10.769531 13.601562 C 9 13.789062 8.742188 12.570312 8.222656 11.734375 C 8.222656 11.734375 8.1875 11.679688 8.132812 11.589844 C 7.953125 11.3125 7.703125 11.085938 7.40625 10.9375 C 7.328125 10.894531 7.246094 10.867188 7.160156 10.851562 C 7.007812 10.820312 6.871094 10.792969 6.796875 10.789062 C 6.625 10.769531 6.132812 10.585938 5.0625 10.707031 C 4.648438 10.753906 4.246094 10.878906 3.878906 11.078125 L 3.824219 11.109375 C 3.824219 11.109375 0.828125 13.078125 1.574219 17.179688 C 1.582031 17.222656 1.621094 17.257812 1.667969 17.257812 L 2.273438 17.257812 C 2.324219 17.257812 2.367188 17.210938 2.371094 17.160156 C 2.398438 16.738281 2.5625 14.898438 3.414062 13.882812 C 3.507812 13.773438 3.6875 13.804688 3.730469 13.945312 C 3.800781 14.160156 3.816406 14.621094 3.640625 15.59375 C 3.632812 15.621094 3.40625 16.765625 3.40625 16.765625 C 3.40625 16.765625 5.777344 17.171875 6.601562 17.023438 C 7.253906 16.90625 7.449219 16.746094 7.503906 16.683594 C 7.515625 16.667969 7.519531 16.652344 7.519531 16.632812 L 7.421875 15.796875 C 7.390625 15.496094 7.304688 14.929688 7.40625 14.210938 C 7.421875 14.09375 7.441406 13.992188 7.46875 13.90625 C 8.109375 14.65625 8.503906 15.648438 10.96875 14.390625 C 11.007812 14.371094 11.027344 14.324219 11.007812 14.273438 " fill-opacity="1" fill-rule="nonzero"/><path fill="#e4dd9e" d="M 6.984375 8.671875 C 6.984375 8.671875 7.128906 8.894531 7.136719 9.078125 C 7.136719 9.125 7.15625 9.277344 7.273438 9.449219 C 7.28125 9.464844 7.28125 9.484375 7.265625 9.5 L 7.152344 9.597656 C 7.144531 9.605469 7.140625 9.613281 7.136719 9.625 C 7.136719 9.6875 7.132812 9.925781 7.125 9.96875 C 7.113281 10.019531 7.074219 10.066406 7.054688 10.078125 C 7 10.105469 6.765625 10.074219 6.765625 10.074219 C 6.765625 10.074219 6.703125 10.078125 6.578125 10.410156 C 6.441406 10.765625 6.714844 10.90625 6.714844 10.90625 C 6.816406 10.960938 6.800781 11.0625 6.6875 11.097656 C 6.300781 11.214844 5.550781 11.34375 5.113281 11.015625 C 5.03125 10.953125 5.066406 10.886719 5.136719 10.871094 C 6.175781 10.640625 5.695312 9.546875 5.714844 9.542969 C 5.769531 9.527344 6.09375 9.199219 6.28125 9.105469 C 6.40625 9.042969 6.558594 9.136719 6.664062 9.039062 L 6.984375 8.671875 " fill-opacity="1" fill-rule="nonzero"/><path fill="#000000" d="M 5.773438 9.570312 C 5.777344 9.574219 5.777344 9.574219 5.777344 9.578125 C 5.820312 9.726562 5.957031 10.179688 5.75 10.53125 C 5.632812 10.726562 5.429688 10.859375 5.148438 10.921875 C 5.128906 10.925781 5.117188 10.933594 5.117188 10.9375 C 5.117188 10.941406 5.121094 10.957031 5.144531 10.972656 C 5.628906 11.339844 6.503906 11.097656 6.671875 11.046875 C 6.707031 11.039062 6.726562 11.019531 6.730469 11 C 6.730469 10.984375 6.714844 10.964844 6.6875 10.949219 C 6.6875 10.949219 6.375 10.785156 6.527344 10.390625 C 6.621094 10.152344 6.699219 10.027344 6.761719 10.019531 C 6.765625 10.019531 6.769531 10.019531 6.773438 10.019531 C 6.886719 10.035156 7.003906 10.042969 7.027344 10.03125 C 7.039062 10.027344 7.066406 9.996094 7.074219 9.960938 C 7.078125 9.933594 7.082031 9.800781 7.085938 9.625 C 7.085938 9.597656 7.097656 9.574219 7.117188 9.558594 L 7.222656 9.46875 C 7.101562 9.285156 7.085938 9.125 7.082031 9.078125 C 7.078125 8.96875 7.015625 8.835938 6.976562 8.761719 L 6.703125 9.074219 C 6.703125 9.074219 6.703125 9.078125 6.699219 9.078125 C 6.625 9.144531 6.539062 9.140625 6.457031 9.136719 C 6.402344 9.132812 6.347656 9.128906 6.304688 9.152344 C 6.199219 9.203125 6.039062 9.339844 5.925781 9.441406 C 5.851562 9.507812 5.804688 9.546875 5.773438 9.570312 Z M 5.871094 11.277344 C 5.597656 11.277344 5.304688 11.222656 5.082031 11.054688 C 5.011719 11 5.011719 10.945312 5.015625 10.917969 C 5.027344 10.871094 5.066406 10.832031 5.125 10.820312 C 5.378906 10.765625 5.558594 10.648438 5.660156 10.480469 C 5.84375 10.167969 5.71875 9.746094 5.679688 9.609375 C 5.664062 9.554688 5.65625 9.539062 5.671875 9.519531 C 5.675781 9.503906 5.691406 9.496094 5.703125 9.492188 C 5.71875 9.484375 5.796875 9.417969 5.855469 9.363281 C 5.984375 9.253906 6.140625 9.117188 6.257812 9.058594 C 6.328125 9.023438 6.402344 9.027344 6.464844 9.03125 C 6.539062 9.035156 6.589844 9.039062 6.628906 9.003906 L 6.945312 8.640625 C 6.957031 8.628906 6.972656 8.621094 6.988281 8.621094 C 7.003906 8.621094 7.019531 8.632812 7.027344 8.644531 C 7.035156 8.65625 7.179688 8.878906 7.1875 9.074219 C 7.1875 9.101562 7.199219 9.25 7.316406 9.417969 C 7.339844 9.457031 7.335938 9.507812 7.300781 9.539062 L 7.191406 9.632812 C 7.1875 9.746094 7.183594 9.933594 7.175781 9.980469 C 7.164062 10.046875 7.109375 10.105469 7.078125 10.121094 C 7.019531 10.152344 6.859375 10.136719 6.777344 10.125 C 6.757812 10.144531 6.707031 10.210938 6.625 10.425781 C 6.507812 10.738281 6.726562 10.855469 6.738281 10.859375 C 6.804688 10.894531 6.839844 10.949219 6.832031 11.011719 C 6.828125 11.074219 6.777344 11.125 6.703125 11.148438 C 6.597656 11.179688 6.25 11.277344 5.871094 11.277344 " fill-opacity="1" fill-rule="nonzero"/><path fill="#000000" d="M 7.261719 9.472656 C 7.234375 9.472656 7.210938 9.453125 7.210938 9.421875 C 7.207031 9.394531 7.230469 9.371094 7.257812 9.367188 C 7.285156 9.367188 7.300781 9.359375 7.316406 9.339844 C 7.355469 9.289062 7.355469 9.1875 7.347656 9.117188 L 6.582031 9.230469 C 6.554688 9.234375 6.527344 9.214844 6.523438 9.1875 C 6.519531 9.15625 6.539062 9.132812 6.566406 9.128906 L 7.382812 9.007812 C 7.410156 9.003906 7.4375 9.023438 7.441406 9.050781 C 7.445312 9.074219 7.484375 9.289062 7.398438 9.402344 C 7.363281 9.445312 7.320312 9.46875 7.265625 9.472656 C 7.265625 9.472656 7.261719 9.472656 7.261719 9.472656 " fill-opacity="1" fill-rule="nonzero"/><path fill="#000000" d="M 6.570312 9.5625 C 6.480469 9.5625 6.367188 9.519531 6.304688 9.371094 C 6.265625 9.265625 6.28125 9.175781 6.351562 9.121094 C 6.421875 9.070312 6.527344 9.074219 6.605469 9.136719 C 6.636719 9.160156 6.667969 9.210938 6.675781 9.226562 C 6.691406 9.25 6.683594 9.285156 6.660156 9.296875 C 6.636719 9.3125 6.601562 9.304688 6.589844 9.28125 C 6.574219 9.257812 6.550781 9.226562 6.542969 9.21875 C 6.496094 9.183594 6.441406 9.183594 6.414062 9.207031 C 6.382812 9.226562 6.378906 9.273438 6.402344 9.332031 C 6.464844 9.492188 6.605469 9.453125 6.609375 9.453125 C 6.636719 9.445312 6.667969 9.460938 6.675781 9.488281 C 6.683594 9.515625 6.667969 9.542969 6.640625 9.550781 C 6.621094 9.558594 6.597656 9.5625 6.570312 9.5625 " fill-opacity="1" fill-rule="nonzero"/><path fill="#000000" d="M 7.292969 8.132812 C 7.21875 8.007812 7.136719 7.898438 6.894531 7.847656 C 6.722656 7.8125 6.449219 7.933594 6.3125 8.074219 C 6.300781 8.085938 6.28125 8.085938 6.273438 8.074219 C 6.242188 8.039062 6.175781 7.953125 6.113281 7.945312 C 5.9375 7.921875 5.753906 8.152344 5.6875 8.269531 C 5.640625 8.355469 5.558594 8.546875 5.515625 8.773438 C 5.511719 8.789062 5.5 8.796875 5.484375 8.796875 C 5.433594 8.789062 5.324219 8.789062 5.230469 8.859375 C 5.058594 8.984375 5.074219 9.167969 5.078125 9.1875 C 5.097656 9.449219 5.359375 9.648438 5.5625 9.753906 C 5.695312 9.828125 5.75 9.835938 5.828125 9.855469 C 5.832031 9.859375 5.839844 9.859375 5.84375 9.855469 C 5.914062 9.867188 6.035156 9.875 6.167969 9.828125 C 6.382812 9.757812 6.371094 9.402344 6.371094 9.402344 L 6.347656 9.335938 C 6.332031 9.292969 6.328125 9.25 6.34375 9.207031 C 6.398438 9.085938 6.582031 9.179688 6.589844 9.179688 C 6.941406 9.109375 7.066406 9.007812 7.132812 8.9375 C 7.363281 8.691406 7.46875 8.4375 7.292969 8.132812 " fill-opacity="1" fill-rule="nonzero"/><path fill="#000000" d="M 2.546875 8.953125 C 2.535156 8.953125 2.519531 8.949219 2.511719 8.9375 C 2.488281 8.917969 2.488281 8.886719 2.511719 8.863281 L 2.632812 8.746094 C 2.652344 8.722656 2.683594 8.722656 2.703125 8.746094 C 2.726562 8.765625 2.726562 8.796875 2.703125 8.816406 L 2.582031 8.9375 C 2.574219 8.949219 2.558594 8.953125 2.546875 8.953125 " fill-opacity="1" fill-rule="nonzero"/><path fill="#000000" d="M 3.003906 8.496094 C 2.988281 8.496094 2.976562 8.492188 2.964844 8.484375 C 2.945312 8.460938 2.945312 8.429688 2.964844 8.410156 L 3.085938 8.289062 C 3.105469 8.269531 3.140625 8.269531 3.160156 8.289062 C 3.179688 8.308594 3.179688 8.339844 3.160156 8.363281 L 3.039062 8.484375 C 3.03125 8.492188 3.015625 8.496094 3.003906 8.496094 " fill-opacity="1" fill-rule="nonzero"/><path fill="#000000" d="M 3.125 8.953125 C 3.109375 8.953125 3.097656 8.949219 3.085938 8.9375 L 2.964844 8.816406 C 2.945312 8.796875 2.945312 8.765625 2.964844 8.746094 C 2.988281 8.722656 3.019531 8.722656 3.039062 8.746094 L 3.160156 8.863281 C 3.179688 8.886719 3.179688 8.917969 3.160156 8.9375 C 3.148438 8.949219 3.136719 8.953125 3.125 8.953125 " fill-opacity="1" fill-rule="nonzero"/><path fill="#000000" d="M 2.667969 8.496094 C 2.65625 8.496094 2.640625 8.492188 2.632812 8.484375 L 2.511719 8.363281 C 2.488281 8.339844 2.488281 8.308594 2.511719 8.289062 C 2.53125 8.269531 2.5625 8.269531 2.582031 8.289062 L 2.703125 8.410156 C 2.726562 8.429688 2.726562 8.460938 2.703125 8.484375 C 2.695312 8.492188 2.679688 8.496094 2.667969 8.496094 " fill-opacity="1" fill-rule="nonzero"/><path fill="#000000" d="M 4.207031 2.433594 C 4.117188 2.433594 4.042969 2.507812 4.042969 2.597656 C 4.042969 2.683594 4.117188 2.757812 4.207031 2.757812 C 4.296875 2.757812 4.367188 2.683594 4.367188 2.597656 C 4.367188 2.507812 4.296875 2.433594 4.207031 2.433594 Z M 4.207031 2.863281 C 4.058594 2.863281 3.9375 2.742188 3.9375 2.597656 C 3.9375 2.449219 4.058594 2.328125 4.207031 2.328125 C 4.351562 2.328125 4.472656 2.449219 4.472656 2.597656 C 4.472656 2.742188 4.351562 2.863281 4.207031 2.863281 " fill-opacity="1" fill-rule="nonzero"/><path fill="#000000" d="M 5.128906 1.625 C 5.101562 1.625 5.078125 1.601562 5.078125 1.574219 C 5.078125 1.542969 5.101562 1.519531 5.128906 1.519531 L 5.3125 1.515625 C 5.34375 1.515625 5.363281 1.539062 5.367188 1.566406 C 5.367188 1.59375 5.34375 1.617188 5.316406 1.617188 L 5.132812 1.625 C 5.132812 1.625 5.128906 1.625 5.128906 1.625 " fill-opacity="1" fill-rule="nonzero"/><path fill="#000000" d="M 5.824219 1.605469 C 5.796875 1.605469 5.773438 1.582031 5.773438 1.554688 C 5.769531 1.527344 5.792969 1.503906 5.824219 1.5 L 6.007812 1.496094 C 6.035156 1.496094 6.058594 1.519531 6.058594 1.546875 C 6.058594 1.574219 6.039062 1.597656 6.007812 1.601562 L 5.824219 1.605469 " fill-opacity="1" fill-rule="nonzero"/><path fill="#000000" d="M 5.582031 2.050781 C 5.550781 2.050781 5.53125 2.027344 5.527344 2 L 5.523438 1.816406 C 5.523438 1.789062 5.546875 1.765625 5.574219 1.761719 C 5.605469 1.761719 5.625 1.785156 5.628906 1.8125 L 5.632812 1.996094 C 5.632812 2.027344 5.609375 2.050781 5.582031 2.050781 " fill-opacity="1" fill-rule="nonzero"/><path fill="#000000" d="M 5.5625 1.355469 C 5.535156 1.355469 5.511719 1.335938 5.511719 1.304688 L 5.503906 1.121094 C 5.503906 1.09375 5.527344 1.070312 5.554688 1.070312 C 5.582031 1.066406 5.609375 1.089844 5.609375 1.121094 L 5.613281 1.304688 C 5.613281 1.332031 5.59375 1.355469 5.5625 1.355469 " fill-opacity="1" fill-rule="nonzero"/><path fill="#e13a2a" d="M 9.480469 5.582031 C 9.480469 5.773438 9.324219 5.929688 9.132812 5.929688 C 8.941406 5.929688 8.785156 5.773438 8.785156 5.582031 C 8.785156 5.390625 8.941406 5.234375 9.132812 5.234375 C 9.324219 5.234375 9.480469 5.390625 9.480469 5.582031 " fill-opacity="1" fill-rule="nonzero"/></svg>