<svg xmlns="http://www.w3.org/2000/svg" xmlns:xlink="http://www.w3.org/1999/xlink" width="40" zoomAndPan="magnify" viewBox="0 0 30 30.000001" height="40" preserveAspectRatio="xMidYMid meet" version="1.0"><defs><clipPath id="5dee1f190a"><path d="M 0.496094 0.140625 L 29.515625 0.140625 L 29.515625 28.761719 L 0.496094 28.761719 Z M 0.496094 0.140625 " clip-rule="nonzero"/></clipPath><clipPath id="1afbae1de4"><path d="M 0.484375 5 L 15 5 L 15 29 L 0.484375 29 Z M 0.484375 5 " clip-rule="nonzero"/></clipPath><clipPath id="a7b780a5ca"><path d="M 14.683594 5.746094 L 29.515625 5.746094 L 29.515625 28.546875 L 14.683594 28.546875 Z M 14.683594 5.746094 " clip-rule="nonzero"/></clipPath></defs><g clip-path="url(#5dee1f190a)"><path fill="#7f8082" d="M 29.421875 7.703125 C 29.414062 6.199219 28.253906 4.53125 26.847656 3.996094 L 17.761719 0.550781 C 16.355469 0.015625 14.046875 0 12.636719 0.515625 L 3.046875 4.003906 C 1.632812 4.519531 0.484375 6.171875 0.496094 7.675781 L 0.589844 21.203125 C 0.597656 22.707031 1.757812 24.371094 3.164062 24.90625 L 12.25 28.351562 C 13.65625 28.886719 15.964844 28.902344 17.375 28.386719 L 26.964844 24.898438 C 28.378906 24.382812 29.527344 22.730469 29.515625 21.226562 L 29.421875 7.703125 " fill-opacity="1" fill-rule="nonzero"/></g><path fill="#c2c3c6" d="M 17.761719 0.550781 C 16.355469 0.015625 14.046875 0 12.636719 0.515625 L 3.046875 4.003906 C 1.632812 4.519531 1.628906 5.378906 3.035156 5.910156 L 12.121094 9.359375 C 13.527344 9.890625 15.835938 9.90625 17.246094 9.390625 L 26.835938 5.902344 C 28.25 5.386719 28.253906 4.53125 26.847656 3.996094 L 17.761719 0.550781 " fill-opacity="1" fill-rule="nonzero"/><g clip-path="url(#1afbae1de4)"><path fill="#aeb1b4" d="M 14.789062 26.589844 C 14.796875 28.09375 13.65625 28.886719 12.25 28.351562 L 3.164062 24.90625 C 1.757812 24.371094 0.597656 22.707031 0.589844 21.203125 L 0.496094 7.675781 C 0.484375 6.171875 1.628906 5.378906 3.035156 5.910156 L 12.121094 9.359375 C 13.527344 9.890625 14.6875 11.558594 14.695312 13.0625 L 14.789062 26.589844 " fill-opacity="1" fill-rule="nonzero"/></g><g clip-path="url(#a7b780a5ca)"><path fill="#94979b" d="M 26.835938 5.902344 C 28.25 5.386719 29.414062 6.199219 29.421875 7.703125 L 29.515625 21.226562 C 29.527344 22.730469 28.378906 24.382812 26.964844 24.898438 L 17.375 28.386719 C 15.964844 28.902344 14.796875 28.09375 14.789062 26.589844 L 14.695312 13.0625 C 14.6875 11.558594 15.835938 9.90625 17.246094 9.390625 L 26.835938 5.902344 " fill-opacity="1" fill-rule="nonzero"/></g><path fill="#bb2e2e" d="M 11.488281 23.542969 L 11.484375 23.546875 L 10.824219 23.992188 L 10.449219 24.195312 L 10.4375 24.203125 C 10.410156 24.226562 10.328125 24.253906 10.207031 24.257812 C 10.09375 24.257812 9.9375 24.234375 9.75 24.160156 C 9.746094 24.160156 9.742188 24.160156 9.734375 24.15625 C 9.304688 23.992188 8.703125 23.597656 7.964844 22.746094 C 7.226562 21.894531 6.351562 20.582031 5.386719 18.59375 C 3.949219 15.636719 3.566406 13.734375 3.554688 12.582031 C 3.550781 12.089844 3.613281 11.734375 3.691406 11.484375 C 3.769531 11.242188 3.867188 11.101562 3.921875 11.046875 L 4.242188 10.78125 L 4.898438 10.328125 C 4.921875 10.3125 4.949219 10.3125 4.972656 10.320312 C 5.007812 10.335938 5.035156 10.363281 5.0625 10.410156 L 6.585938 13.441406 C 6.589844 13.457031 6.597656 13.472656 6.605469 13.488281 C 6.625 13.523438 6.632812 13.566406 6.632812 13.601562 C 6.632812 13.644531 6.625 13.675781 6.589844 13.699219 C 6.582031 13.703125 6.578125 13.710938 6.570312 13.71875 L 5.929688 14.152344 L 5.917969 14.164062 L 5.589844 14.4375 L 5.589844 14.433594 C 5.507812 14.492188 5.441406 14.574219 5.398438 14.679688 C 5.359375 14.78125 5.34375 14.90625 5.34375 15.03125 C 5.347656 15.265625 5.402344 15.503906 5.480469 15.746094 C 5.554688 15.988281 5.652344 16.234375 5.75 16.476562 C 6.1875 17.53125 6.699219 18.519531 7.15625 19.304688 C 7.414062 19.746094 7.625 20.105469 7.824219 20.378906 C 7.921875 20.519531 8.015625 20.640625 8.113281 20.738281 C 8.214844 20.835938 8.316406 20.914062 8.425781 20.957031 C 8.429688 20.957031 8.429688 20.957031 8.433594 20.960938 C 8.570312 21.011719 8.703125 20.992188 8.808594 20.917969 L 9.175781 20.707031 L 9.183594 20.703125 L 9.847656 20.25 C 9.871094 20.238281 9.894531 20.238281 9.921875 20.246094 C 9.953125 20.257812 9.984375 20.289062 10.007812 20.335938 L 11.480469 23.289062 C 11.484375 23.304688 11.492188 23.320312 11.5 23.335938 C 11.519531 23.371094 11.527344 23.414062 11.527344 23.449219 C 11.527344 23.488281 11.519531 23.519531 11.488281 23.542969 Z M 11.863281 23.148438 C 11.855469 23.128906 11.847656 23.113281 11.839844 23.097656 L 10.351562 20.101562 C 10.238281 19.882812 10.078125 19.722656 9.917969 19.664062 C 9.792969 19.617188 9.671875 19.625 9.570312 19.691406 L 8.90625 20.140625 L 8.539062 20.351562 L 8.53125 20.355469 C 8.480469 20.386719 8.457031 20.386719 8.421875 20.375 C 8.394531 20.363281 8.355469 20.339844 8.300781 20.28125 C 8.214844 20.199219 8.101562 20.046875 7.960938 19.832031 C 7.820312 19.621094 7.65625 19.34375 7.46875 19.015625 L 7.46875 19.019531 C 7.03125 18.265625 6.535156 17.308594 6.121094 16.308594 C 6.027344 16.078125 5.941406 15.851562 5.878906 15.65625 C 5.816406 15.460938 5.785156 15.296875 5.785156 15.199219 C 5.785156 15.144531 5.789062 15.105469 5.800781 15.078125 C 5.8125 15.046875 5.832031 15.023438 5.867188 14.996094 L 5.878906 14.988281 L 6.210938 14.714844 L 6.871094 14.265625 C 6.878906 14.257812 6.890625 14.25 6.898438 14.238281 C 7.015625 14.140625 7.078125 13.964844 7.074219 13.769531 C 7.074219 13.621094 7.039062 13.460938 6.972656 13.3125 C 6.964844 13.292969 6.957031 13.273438 6.949219 13.253906 L 5.402344 10.175781 C 5.289062 9.953125 5.128906 9.796875 4.96875 9.738281 C 4.84375 9.691406 4.722656 9.699219 4.621094 9.769531 L 3.957031 10.222656 L 3.945312 10.230469 L 3.621094 10.503906 L 3.613281 10.511719 C 3.503906 10.613281 3.382812 10.804688 3.28125 11.117188 C 3.179688 11.425781 3.109375 11.851562 3.113281 12.414062 C 3.125 13.734375 3.5625 15.777344 5.039062 18.820312 C 6.035156 20.863281 6.949219 22.242188 7.746094 23.160156 C 8.542969 24.082031 9.222656 24.542969 9.742188 24.742188 C 9.976562 24.828125 10.175781 24.863281 10.335938 24.863281 C 10.496094 24.863281 10.621094 24.828125 10.714844 24.765625 L 11.085938 24.5625 L 11.097656 24.558594 L 11.757812 24.109375 L 11.765625 24.105469 C 11.902344 24.015625 11.972656 23.824219 11.96875 23.613281 C 11.96875 23.460938 11.929688 23.296875 11.863281 23.148438 " fill-opacity="1" fill-rule="nonzero"/><path fill="#bb2e2e" d="M 13.863281 7.121094 L 14.285156 5.199219 L 15.257812 5.167969 C 15.480469 5.160156 15.683594 5.125 15.835938 5.066406 C 15.984375 5.011719 16.082031 4.933594 16.101562 4.847656 L 16.183594 4.476562 L 21.238281 4.3125 Z M 13.222656 7.167969 L 8.523438 5.390625 L 13.648438 5.222656 Z M 16.019531 2.335938 L 15.472656 4.832031 C 15.46875 4.859375 15.4375 4.882812 15.390625 4.898438 C 15.34375 4.917969 15.285156 4.929688 15.21875 4.929688 L 13.988281 4.96875 C 13.976562 4.972656 13.96875 4.972656 13.957031 4.972656 L 8.640625 5.144531 Z M 16.660156 2.289062 L 21.359375 4.070312 L 16.234375 4.234375 Z M 22.378906 4.148438 C 22.375 4.144531 22.375 4.140625 22.375 4.140625 C 22.363281 4.113281 22.328125 4.09375 22.285156 4.078125 L 16.636719 1.9375 C 16.59375 1.921875 16.539062 1.910156 16.472656 1.90625 C 16.460938 1.90625 16.445312 1.902344 16.429688 1.902344 C 16.425781 1.902344 16.425781 1.902344 16.421875 1.902344 C 16.417969 1.902344 16.410156 1.902344 16.40625 1.902344 C 16.402344 1.902344 16.402344 1.902344 16.398438 1.902344 C 16.378906 1.902344 16.363281 1.90625 16.347656 1.90625 C 16.285156 1.910156 16.226562 1.921875 16.183594 1.9375 C 16.183594 1.941406 16.179688 1.941406 16.179688 1.941406 L 7.601562 5.207031 C 7.597656 5.207031 7.597656 5.207031 7.597656 5.207031 C 7.550781 5.226562 7.519531 5.246094 7.507812 5.269531 C 7.503906 5.273438 7.503906 5.28125 7.503906 5.285156 C 7.503906 5.289062 7.5 5.292969 7.5 5.292969 C 7.5 5.324219 7.535156 5.355469 7.589844 5.378906 L 13.253906 7.519531 C 13.289062 7.535156 13.335938 7.546875 13.390625 7.550781 C 13.398438 7.550781 13.410156 7.550781 13.417969 7.554688 C 13.421875 7.554688 13.421875 7.554688 13.421875 7.554688 C 13.4375 7.554688 13.457031 7.554688 13.472656 7.554688 C 13.476562 7.554688 13.480469 7.554688 13.484375 7.554688 C 13.5 7.554688 13.519531 7.554688 13.535156 7.550781 C 13.597656 7.546875 13.65625 7.535156 13.699219 7.519531 C 13.703125 7.515625 13.707031 7.515625 13.710938 7.515625 L 22.273438 4.253906 C 22.277344 4.253906 22.28125 4.25 22.285156 4.25 C 22.332031 4.234375 22.363281 4.210938 22.375 4.1875 C 22.378906 4.179688 22.378906 4.171875 22.382812 4.164062 C 22.382812 4.160156 22.378906 4.152344 22.378906 4.148438 " fill-opacity="1" fill-rule="nonzero"/><path fill="#bb2e2e" d="M 23.585938 18.3125 C 23.289062 18.820312 22.878906 19.21875 22.417969 19.390625 C 21.957031 19.566406 21.539062 19.484375 21.234375 19.210938 C 20.929688 18.933594 20.738281 18.46875 20.730469 17.871094 C 20.726562 17.273438 20.90625 16.664062 21.203125 16.160156 C 21.503906 15.652344 21.914062 15.257812 22.375 15.082031 C 22.835938 14.90625 23.253906 14.988281 23.558594 15.265625 C 23.863281 15.539062 24.054688 16.007812 24.058594 16.601562 C 24.066406 17.199219 23.886719 17.808594 23.585938 18.3125 Z M 26.367188 15.726562 C 26.339844 12.882812 24.539062 11.257812 22.34375 12.089844 C 20.152344 12.925781 18.394531 15.90625 18.425781 18.75 C 18.453125 21.589844 20.253906 23.214844 22.449219 22.382812 C 23.171875 22.105469 23.851562 21.59375 24.433594 20.925781 C 24.539062 20.804688 24.574219 20.613281 24.511719 20.5 C 24.46875 20.421875 24.394531 20.398438 24.316406 20.425781 C 24.277344 20.441406 24.238281 20.46875 24.203125 20.507812 C 23.6875 21.101562 23.085938 21.554688 22.441406 21.800781 C 21.46875 22.167969 20.585938 21.996094 19.9375 21.410156 C 19.292969 20.828125 18.886719 19.835938 18.875 18.578125 C 18.863281 17.316406 19.246094 16.027344 19.875 14.957031 C 20.503906 13.886719 21.378906 13.046875 22.351562 12.675781 C 23.324219 12.304688 24.207031 12.480469 24.851562 13.0625 C 25.5 13.648438 25.902344 14.636719 25.914062 15.898438 C 25.917969 16.183594 25.902344 16.46875 25.863281 16.757812 C 25.796875 17.210938 25.6875 17.566406 25.550781 17.820312 C 25.410156 18.078125 25.253906 18.246094 25.039062 18.363281 L 25.042969 18.363281 C 25.023438 18.371094 25.003906 18.382812 24.980469 18.394531 C 24.9375 18.410156 24.886719 18.417969 24.84375 18.417969 C 24.773438 18.414062 24.710938 18.390625 24.652344 18.289062 C 24.59375 18.191406 24.539062 18 24.535156 17.644531 L 24.496094 13.972656 C 24.496094 13.8125 24.394531 13.71875 24.269531 13.765625 C 24.144531 13.816406 24.042969 13.984375 24.046875 14.144531 L 24.054688 14.925781 C 23.660156 14.425781 23.050781 14.238281 22.367188 14.496094 C 21.199219 14.941406 20.265625 16.527344 20.28125 18.042969 C 20.296875 19.554688 21.253906 20.421875 22.421875 19.976562 C 23.121094 19.710938 23.734375 19.042969 24.109375 18.222656 C 24.125 18.328125 24.144531 18.425781 24.171875 18.511719 C 24.253906 18.78125 24.398438 18.9375 24.554688 18.992188 C 24.710938 19.050781 24.867188 19.019531 24.984375 18.976562 C 25.027344 18.960938 25.066406 18.941406 25.101562 18.921875 C 25.414062 18.753906 25.6875 18.460938 25.890625 18.078125 C 26.09375 17.695312 26.226562 17.234375 26.308594 16.707031 L 26.308594 16.699219 C 26.351562 16.375 26.371094 16.050781 26.367188 15.726562 " fill-opacity="1" fill-rule="nonzero"/></svg>