<svg xmlns="http://www.w3.org/2000/svg" xmlns:xlink="http://www.w3.org/1999/xlink" width="40" zoomAndPan="magnify" viewBox="0 0 30 30.000001" height="40" preserveAspectRatio="xMidYMid meet" version="1.0"><defs><clipPath id="fb5730d17c"><path d="M 0.484375 17 L 29.515625 17 L 29.515625 29 L 0.484375 29 Z M 0.484375 17 " clip-rule="nonzero"/></clipPath><clipPath id="40ec9088e3"><path d="M 21 8 L 29.515625 8 L 29.515625 17 L 21 17 Z M 21 8 " clip-rule="nonzero"/></clipPath><clipPath id="8052111014"><path d="M 0.484375 17 L 8.46875 17 L 8.46875 17.78125 L 0.484375 17.78125 Z M 0.484375 17 " clip-rule="nonzero"/></clipPath><clipPath id="663e4b7597"><path d="M 8 9.074219 L 8.46875 9.074219 L 8.46875 10 L 8 10 Z M 8 9.074219 " clip-rule="nonzero"/></clipPath><clipPath id="34db534e37"><path d="M 1 9.074219 L 8 9.074219 L 8 17.78125 L 1 17.78125 Z M 1 9.074219 " clip-rule="nonzero"/></clipPath><clipPath id="e04956f915"><path d="M 8.539062 0 L 19.425781 0 L 19.425781 10 L 8.539062 10 Z M 8.539062 0 " clip-rule="nonzero"/></clipPath><clipPath id="ca535d3d3d"><path d="M 8.539062 4 L 9 4 L 9 6 L 8.539062 6 Z M 8.539062 4 " clip-rule="nonzero"/></clipPath><clipPath id="330ddb605d"><path d="M 19 2 L 19.425781 2 L 19.425781 4 L 19 4 Z M 19 2 " clip-rule="nonzero"/></clipPath><clipPath id="3a9e6d6ae1"><path d="M 21 8.636719 L 29.445312 8.636719 L 29.445312 16.621094 L 21 16.621094 Z M 21 8.636719 " clip-rule="nonzero"/></clipPath><clipPath id="2254e8792d"><path d="M 25 8.636719 L 26 8.636719 L 26 9 L 25 9 Z M 25 8.636719 " clip-rule="nonzero"/></clipPath></defs><g clip-path="url(#fb5730d17c)"><path fill="#c3b470" d="M 18.199219 19.152344 C 19.972656 20.402344 22.328125 20.492188 24.46875 20.121094 C 25.371094 19.964844 26.324219 19.703125 26.929688 19.007812 C 27.269531 18.617188 27.515625 18.082031 28.007812 17.914062 C 28.753906 17.660156 29.488281 18.503906 29.5 19.292969 C 29.511719 20.074219 29.082031 20.8125 28.488281 21.316406 C 27.894531 21.820312 27.15625 22.121094 26.410156 22.34375 C 24.042969 23.046875 21.476562 23.050781 19.109375 22.355469 C 19.167969 24.414062 19.230469 26.46875 19.289062 28.527344 C 19.292969 28.660156 19.289062 28.8125 19.183594 28.894531 C 19.109375 28.953125 19.003906 28.953125 18.910156 28.953125 C 16.421875 28.933594 13.9375 28.910156 11.449219 28.886719 C 11.347656 28.886719 11.238281 28.882812 11.164062 28.8125 C 11.085938 28.738281 11.082031 28.617188 11.082031 28.507812 C 11.09375 26.710938 11.109375 24.917969 11.121094 23.125 C 10.136719 23.695312 8.953125 23.855469 7.820312 23.75 C 6.683594 23.640625 5.59375 23.277344 4.53125 22.859375 C 3.335938 22.390625 2.144531 21.832031 1.210938 20.945312 C 0.835938 20.589844 0.484375 20.097656 0.617188 19.597656 C 0.707031 19.261719 1 19.011719 1.316406 18.871094 C 2.140625 18.511719 3.109375 18.761719 3.910156 19.171875 C 4.714844 19.578125 5.441406 20.140625 6.289062 20.441406 C 7.851562 20.996094 9.722656 20.53125 10.84375 19.304688 C 11.121094 19 11.585938 18.96875 12 18.960938 C 13.546875 18.925781 15.097656 18.890625 16.648438 18.855469 C 17.183594 18.84375 17.761719 18.839844 18.199219 19.152344 Z M 18.199219 19.152344 " fill-opacity="1" fill-rule="nonzero"/></g><path fill="#c3b470" d="M 13.488281 17.027344 C 12.671875 16.4375 12.144531 15.453125 12.136719 14.441406 C 12.128906 13.433594 12.652344 12.429688 13.503906 11.886719 C 14.152344 11.472656 14.96875 11.332031 15.722656 11.488281 C 16.476562 11.640625 17.164062 12.085938 17.632812 12.699219 C 18.167969 13.402344 18.410156 14.324219 18.257812 15.191406 C 18.109375 16.0625 17.558594 16.859375 16.789062 17.285156 C 15.769531 17.847656 14.429688 17.710938 13.488281 17.027344 Z M 13.488281 17.027344 " fill-opacity="1" fill-rule="nonzero"/><path fill="#c3b470" d="M 11.382812 9.195312 C 11.28125 9.210938 11.164062 9.226562 11.078125 9.167969 C 11.007812 9.125 10.96875 9.046875 10.933594 8.972656 C 10.074219 7.097656 9.214844 5.222656 8.351562 3.347656 C 8.320312 3.28125 8.289062 3.203125 8.316406 3.132812 C 8.359375 3.03125 8.496094 3.015625 8.605469 3.019531 C 10.15625 3.039062 11.707031 3.0625 13.253906 3.082031 C 13.316406 3.082031 13.371094 3.042969 13.417969 3.003906 C 14.621094 2.054688 15.824219 1.109375 17.027344 0.160156 C 17.125 0.0820312 17.261719 0 17.371094 0.0703125 C 17.429688 0.105469 17.453125 0.179688 17.476562 0.246094 C 18.105469 2.191406 18.730469 4.136719 19.359375 6.082031 C 19.382812 6.152344 19.40625 6.230469 19.382812 6.304688 C 19.355469 6.390625 19.269531 6.445312 19.1875 6.492188 C 18.234375 7.042969 17.28125 7.59375 16.324219 8.140625 C 16.011719 8.324219 15.691406 8.503906 15.335938 8.5625 C 14.015625 8.773438 12.699219 8.984375 11.382812 9.195312 M 18.945312 6.03125 C 18.355469 4.207031 17.761719 2.378906 17.171875 0.550781 C 16.097656 1.375 15.035156 2.210938 13.976562 3.054688 C 13.929688 3.09375 13.875 3.140625 13.863281 3.203125 C 13.855469 3.246094 13.867188 3.289062 13.882812 3.332031 C 14.382812 4.964844 14.882812 6.597656 15.382812 8.230469 C 16.542969 7.570312 17.699219 6.910156 18.855469 6.25 C 18.898438 6.226562 18.941406 6.199219 18.957031 6.152344 C 18.96875 6.113281 18.957031 6.070312 18.945312 6.03125 M 13.480469 3.507812 C 13.433594 3.472656 13.367188 3.46875 13.304688 3.46875 C 11.804688 3.449219 10.304688 3.429688 8.804688 3.410156 C 9.605469 5.15625 10.40625 6.902344 11.207031 8.648438 C 11.234375 8.703125 11.261719 8.761719 11.316406 8.789062 C 11.363281 8.808594 11.417969 8.800781 11.46875 8.792969 C 12.59375 8.621094 13.71875 8.445312 14.84375 8.269531 C 14.875 8.265625 14.910156 8.257812 14.929688 8.234375 C 14.953125 8.203125 14.941406 8.160156 14.929688 8.125 C 14.472656 6.632812 14.015625 5.144531 13.558594 3.652344 C 13.542969 3.601562 13.523438 3.542969 13.480469 3.507812 Z M 13.480469 3.507812 " fill-opacity="1" fill-rule="nonzero"/><g clip-path="url(#40ec9088e3)"><path fill="#c3b470" d="M 24.726562 8.902344 C 26.066406 8.921875 27.402344 8.941406 28.742188 8.960938 C 28.847656 8.964844 28.96875 8.972656 29.035156 9.054688 C 29.085938 9.125 29.082031 9.222656 29.074219 9.308594 C 28.929688 11.046875 28.785156 12.78125 28.636719 14.519531 C 28.632812 14.59375 28.621094 14.675781 28.570312 14.730469 C 28.492188 14.808594 28.363281 14.789062 28.253906 14.765625 C 28.03125 14.714844 27.804688 14.667969 27.578125 14.617188 C 27.40625 14.578125 27.285156 14.800781 27.296875 14.980469 C 27.304688 15.15625 27.378906 15.34375 27.3125 15.507812 C 27.246094 15.667969 27.066406 15.753906 26.894531 15.761719 C 26.722656 15.769531 26.554688 15.710938 26.394531 15.652344 C 26.253906 15.601562 26.140625 15.789062 26.140625 15.941406 C 26.136719 16.089844 26.171875 16.265625 26.0625 16.371094 C 25.980469 16.453125 25.847656 16.453125 25.730469 16.445312 C 24.65625 16.398438 23.578125 16.347656 22.503906 16.296875 C 22.28125 16.285156 22.042969 16.28125 21.867188 16.414062 C 21.800781 16.464844 21.699219 16.421875 21.660156 16.351562 C 21.617188 16.28125 21.621094 16.195312 21.625 16.113281 C 21.679688 14.5625 21.738281 13.011719 21.792969 11.464844 C 21.796875 11.371094 21.804688 11.269531 21.875 11.210938 C 21.933594 11.160156 22.023438 11.15625 22.101562 11.15625 C 22.386719 11.160156 22.675781 11.160156 22.960938 11.164062 C 22.949219 10.925781 22.972656 10.683594 23.039062 10.457031 C 23.054688 10.386719 23.082031 10.316406 23.132812 10.265625 C 23.214844 10.183594 23.34375 10.179688 23.460938 10.179688 C 23.792969 10.183594 24.121094 10.1875 24.453125 10.1875 C 24.371094 9.871094 24.34375 9.542969 24.363281 9.214844 C 24.371094 9.128906 24.386719 9.035156 24.449219 8.972656 C 24.519531 8.90625 24.628906 8.902344 24.726562 8.902344 M 23.433594 10.605469 C 23.40625 10.628906 23.390625 10.667969 23.378906 10.703125 C 23.335938 10.84375 23.332031 10.996094 23.371094 11.140625 C 24.296875 11.152344 25.222656 11.164062 26.148438 11.175781 C 26.230469 11.179688 26.316406 11.183594 26.378906 11.230469 C 26.472656 11.304688 26.472656 11.445312 26.464844 11.5625 C 26.386719 12.730469 26.308594 13.894531 26.234375 15.0625 C 26.226562 15.179688 26.320312 15.28125 26.433594 15.316406 C 26.542969 15.355469 26.660156 15.34375 26.777344 15.332031 C 26.8125 15.328125 26.847656 15.324219 26.875 15.300781 C 26.910156 15.269531 26.917969 15.21875 26.921875 15.171875 C 27.039062 13.664062 27.15625 12.15625 27.273438 10.652344 C 27.277344 10.617188 27.277344 10.582031 27.257812 10.558594 C 27.234375 10.539062 27.199219 10.535156 27.167969 10.539062 C 25.972656 10.550781 24.773438 10.5625 23.574219 10.574219 C 23.527344 10.574219 23.472656 10.574219 23.433594 10.605469 M 27.621094 10.136719 C 27.722656 10.207031 27.722656 10.351562 27.714844 10.476562 C 27.632812 11.710938 27.546875 12.949219 27.464844 14.183594 C 27.660156 12.949219 27.726562 11.695312 27.789062 10.445312 C 27.796875 10.308594 27.792969 10.148438 27.683594 10.066406 C 27.609375 10.007812 27.503906 10.007812 27.410156 10.011719 C 26.59375 10.035156 25.78125 10.0625 24.964844 10.085938 C 25.78125 10.089844 26.597656 10.09375 27.414062 10.09375 C 27.484375 10.09375 27.5625 10.097656 27.621094 10.136719 M 28.265625 14.183594 C 28.378906 12.636719 28.492188 11.085938 28.605469 9.539062 C 28.464844 11.078125 28.320312 12.613281 28.179688 14.152344 C 28.175781 14.175781 28.171875 14.203125 28.15625 14.21875 C 28.136719 14.234375 28.109375 14.230469 28.082031 14.226562 C 27.917969 14.207031 27.753906 14.183594 27.589844 14.164062 C 27.753906 14.25 27.9375 14.300781 28.121094 14.3125 C 28.160156 14.316406 28.203125 14.3125 28.230469 14.289062 C 28.257812 14.261719 28.261719 14.222656 28.265625 14.183594 M 28.445312 9.367188 C 27.304688 9.355469 26.164062 9.34375 25.023438 9.332031 C 24.941406 9.332031 24.847656 9.335938 24.789062 9.394531 C 26.070312 9.421875 27.351562 9.4375 28.628906 9.449219 C 28.605469 9.382812 28.515625 9.371094 28.445312 9.367188 M 24.808594 9.492188 C 24.792969 9.660156 24.792969 9.828125 24.816406 9.992188 C 24.820312 10.03125 24.835938 10.078125 24.871094 10.085938 C 24.953125 9.96875 24.820312 9.8125 24.84375 9.675781 C 24.851562 9.640625 24.867188 9.605469 24.867188 9.570312 C 24.871094 9.53125 24.84375 9.492188 24.808594 9.492188 Z M 24.808594 9.492188 " fill-opacity="1" fill-rule="nonzero"/></g><path fill="#c3b470" d="M 6.6875 16.351562 C 6.695312 16.429688 6.628906 16.503906 6.554688 16.535156 C 6.484375 16.566406 6.398438 16.566406 6.320312 16.566406 C 5.445312 16.570312 4.582031 16.742188 3.707031 16.761719 C 3.507812 16.765625 3.292969 16.757812 3.125 16.648438 C 3.230469 16.617188 3.34375 16.601562 3.453125 16.582031 C 4.421875 16.433594 5.382812 16.132812 6.367188 16.164062 C 6.503906 16.167969 6.675781 16.214844 6.6875 16.351562 Z M 6.6875 16.351562 " fill-opacity="1" fill-rule="nonzero"/><path fill="#c3b470" d="M 22.820312 4.371094 C 22.929688 4.257812 23.132812 4.25 23.25 4.355469 C 23.371094 4.460938 23.390625 4.660156 23.292969 4.785156 C 23.1875 4.921875 22.964844 4.941406 22.835938 4.828125 C 22.710938 4.71875 22.699219 4.496094 22.820312 4.371094 Z M 22.820312 4.371094 " fill-opacity="1" fill-rule="nonzero"/><path fill="#c3b470" d="M 2.457031 17.027344 C 2.09375 16.921875 1.6875 16.710938 1.660156 16.335938 C 1.644531 16.160156 1.632812 15.984375 1.617188 15.808594 C 1.605469 15.621094 1.589844 15.4375 1.578125 15.25 C 1.507812 14.261719 1.453125 13.269531 1.398438 12.28125 C 1.378906 11.9375 1.359375 11.597656 1.339844 11.253906 C 1.335938 11.121094 1.328125 10.984375 1.355469 10.851562 C 1.453125 10.398438 1.933594 10.144531 2.378906 10.007812 C 3.683594 9.605469 5.089844 9.71875 6.429688 9.984375 C 6.550781 10.007812 6.679688 10.039062 6.75 10.140625 C 6.808594 10.21875 6.8125 10.324219 6.816406 10.425781 C 6.84375 12.050781 6.875 13.675781 6.90625 15.300781 C 6.910156 15.472656 6.890625 15.679688 6.738281 15.75 C 6.667969 15.78125 6.714844 15.890625 6.679688 15.957031 C 6.652344 16.011719 6.582031 16.019531 6.523438 16.027344 C 5.265625 16.121094 4.007812 16.214844 2.75 16.308594 C 2.730469 16.171875 2.90625 16.101562 3.042969 16.078125 C 3.851562 15.949219 4.65625 15.816406 5.464844 15.6875 C 4.351562 15.628906 3.226562 15.804688 2.183594 16.199219 C 2.085938 16.238281 2.074219 16.382812 2.132812 16.464844 C 2.195312 16.550781 2.300781 16.589844 2.398438 16.621094 C 3.792969 17.058594 5.292969 16.980469 6.738281 16.789062 C 6.832031 16.773438 6.945312 16.769531 7.003906 16.84375 C 7.066406 16.921875 7.027344 17.042969 6.945312 17.101562 C 6.867188 17.160156 6.765625 17.171875 6.664062 17.183594 C 5.257812 17.328125 3.8125 17.421875 2.457031 17.027344 M 1.796875 11.351562 C 1.875 11.457031 1.847656 11.605469 1.828125 11.734375 C 1.789062 12.007812 1.804688 12.285156 1.816406 12.558594 C 1.875 13.648438 1.929688 14.734375 1.984375 15.824219 C 3.394531 15.320312 4.921875 15.148438 6.40625 15.332031 C 6.484375 15.34375 6.515625 15.234375 6.511719 15.15625 C 6.480469 13.636719 6.449219 12.117188 6.417969 10.597656 C 6.417969 10.535156 6.414062 10.46875 6.375 10.417969 C 6.332031 10.367188 6.261719 10.351562 6.195312 10.339844 C 4.9375 10.113281 3.617188 10.003906 2.410156 10.414062 C 2.203125 10.484375 1.992188 10.578125 1.851562 10.746094 C 1.710938 10.914062 1.664062 11.175781 1.796875 11.351562 Z M 1.796875 11.351562 " fill-opacity="1" fill-rule="nonzero"/><path fill="#c3b470" d="M 25.207031 6.757812 C 25.132812 6.882812 24.964844 6.9375 24.828125 6.886719 C 24.691406 6.835938 24.605469 6.683594 24.628906 6.539062 C 24.660156 6.359375 24.878906 6.234375 25.050781 6.300781 C 25.222656 6.363281 25.300781 6.597656 25.207031 6.757812 Z M 25.207031 6.757812 " fill-opacity="1" fill-rule="nonzero"/><path fill="#c3b470" d="M 25.710938 7.460938 C 25.707031 7.605469 25.589844 7.738281 25.449219 7.757812 C 25.308594 7.777344 25.15625 7.683594 25.113281 7.546875 C 25.058594 7.378906 25.183594 7.175781 25.363281 7.148438 C 25.539062 7.125 25.71875 7.285156 25.710938 7.460938 Z M 25.710938 7.460938 " fill-opacity="1" fill-rule="nonzero"/><path fill="#c3b470" d="M 22.382812 4.363281 C 22.25 4.421875 22.082031 4.382812 21.996094 4.265625 C 21.910156 4.148438 21.917969 3.972656 22.015625 3.867188 C 22.140625 3.734375 22.386719 3.746094 22.496094 3.894531 C 22.605469 4.042969 22.546875 4.28125 22.382812 4.363281 Z M 22.382812 4.363281 " fill-opacity="1" fill-rule="nonzero"/><path fill="#c3b470" d="M 21.65625 3.542969 C 21.707031 3.671875 21.660156 3.832031 21.550781 3.914062 C 21.414062 4.015625 21.191406 3.972656 21.101562 3.824219 C 21.011719 3.679688 21.074219 3.460938 21.226562 3.382812 C 21.378906 3.304688 21.589844 3.386719 21.65625 3.542969 Z M 21.65625 3.542969 " fill-opacity="1" fill-rule="nonzero"/><path fill="#c3b470" d="M 23.863281 5.453125 C 23.6875 5.523438 23.460938 5.390625 23.441406 5.203125 C 23.421875 5.050781 23.535156 4.894531 23.683594 4.863281 C 23.835938 4.832031 24 4.929688 24.042969 5.078125 C 24.085938 5.222656 24.003906 5.398438 23.863281 5.453125 Z M 23.863281 5.453125 " fill-opacity="1" fill-rule="nonzero"/><path fill="#c3b470" d="M 7.652344 5.640625 C 7.554688 5.742188 7.375 5.761719 7.257812 5.679688 C 7.136719 5.601562 7.089844 5.429688 7.148438 5.300781 C 7.203125 5.167969 7.363281 5.089844 7.503906 5.121094 C 7.609375 5.148438 7.699219 5.234375 7.726562 5.335938 C 7.757812 5.441406 7.726562 5.5625 7.652344 5.640625 Z M 7.652344 5.640625 " fill-opacity="1" fill-rule="nonzero"/><path fill="#c3b470" d="M 24.648438 5.6875 C 24.671875 5.734375 24.683594 5.789062 24.679688 5.84375 C 24.671875 6.03125 24.464844 6.179688 24.285156 6.128906 C 24.109375 6.074219 24.011719 5.839844 24.105469 5.675781 C 24.160156 5.582031 24.269531 5.519531 24.378906 5.523438 C 24.488281 5.523438 24.597656 5.589844 24.648438 5.6875 Z M 24.648438 5.6875 " fill-opacity="1" fill-rule="nonzero"/><path fill="#c3b470" d="M 6.945312 5.828125 C 6.964844 5.898438 6.957031 5.972656 6.925781 6.035156 C 6.839844 6.207031 6.578125 6.257812 6.4375 6.125 C 6.300781 5.996094 6.328125 5.730469 6.492188 5.636719 C 6.65625 5.539062 6.902344 5.640625 6.945312 5.828125 Z M 6.945312 5.828125 " fill-opacity="1" fill-rule="nonzero"/><path fill="#c3b470" d="M 25.4375 8.042969 C 25.535156 7.9375 25.710938 7.914062 25.828125 7.992188 C 25.972656 8.082031 26.011719 8.296875 25.914062 8.429688 C 25.816406 8.566406 25.601562 8.59375 25.46875 8.488281 C 25.339844 8.382812 25.324219 8.164062 25.4375 8.042969 Z M 25.4375 8.042969 " fill-opacity="1" fill-rule="nonzero"/><path fill="#c3b470" d="M 8.109375 5.300781 C 8.03125 5.246094 7.980469 5.15625 7.976562 5.0625 C 7.96875 4.972656 8.007812 4.882812 8.074219 4.820312 C 8.1875 4.71875 8.382812 4.71875 8.492188 4.824219 C 8.601562 4.929688 8.617188 5.121094 8.519531 5.238281 C 8.425781 5.359375 8.234375 5.386719 8.109375 5.300781 Z M 8.109375 5.300781 " fill-opacity="1" fill-rule="nonzero"/><path fill="#c3b470" d="M 20.851562 3.292969 C 20.921875 3.476562 20.761719 3.707031 20.5625 3.707031 C 20.386719 3.707031 20.234375 3.527344 20.261719 3.351562 C 20.292969 3.179688 20.492188 3.054688 20.660156 3.109375 C 20.746094 3.140625 20.816406 3.207031 20.851562 3.292969 Z M 20.851562 3.292969 " fill-opacity="1" fill-rule="nonzero"/><path fill="#c3b470" d="M 5.589844 6.480469 C 5.589844 6.347656 5.691406 6.21875 5.824219 6.1875 C 5.953125 6.15625 6.101562 6.230469 6.160156 6.351562 C 6.238281 6.511719 6.132812 6.734375 5.957031 6.773438 C 5.78125 6.816406 5.589844 6.660156 5.589844 6.480469 Z M 5.589844 6.480469 " fill-opacity="1" fill-rule="nonzero"/><path fill="#c3b470" d="M 5.40625 7.332031 C 5.265625 7.464844 4.996094 7.40625 4.925781 7.226562 C 4.851562 7.046875 5.007812 6.820312 5.203125 6.820312 C 5.320312 6.824219 5.433594 6.898438 5.476562 7.007812 C 5.519531 7.117188 5.488281 7.25 5.40625 7.332031 Z M 5.40625 7.332031 " fill-opacity="1" fill-rule="nonzero"/><path fill="#c3b470" d="M 19.933594 3.328125 C 19.902344 3.433594 19.808594 3.519531 19.699219 3.535156 C 19.589844 3.554688 19.476562 3.507812 19.410156 3.421875 C 19.289062 3.261719 19.398438 2.988281 19.597656 2.953125 C 19.792969 2.917969 19.988281 3.136719 19.933594 3.328125 Z M 19.933594 3.328125 " fill-opacity="1" fill-rule="nonzero"/><path fill="#c3b470" d="M 1.890625 11.027344 C 1.867188 10.78125 2.148438 10.632812 2.382812 10.5625 C 3.652344 10.179688 5.035156 10.171875 6.3125 10.539062 C 6.316406 12.085938 6.347656 13.632812 6.398438 15.179688 C 4.949219 15.121094 3.4375 15.074219 2.105469 15.648438 C 2.070312 14.84375 2.035156 14.039062 2.003906 13.234375 C 1.988281 12.921875 1.976562 12.605469 1.960938 12.289062 C 1.945312 11.867188 1.925781 11.445312 1.890625 11.027344 Z M 1.890625 11.027344 " fill-opacity="1" fill-rule="nonzero"/><path fill="#c3b470" d="M 4.859375 7.878906 C 4.835938 8.035156 4.660156 8.152344 4.507812 8.117188 C 4.351562 8.078125 4.246094 7.898438 4.292969 7.746094 C 4.335938 7.605469 4.496094 7.515625 4.636719 7.546875 C 4.78125 7.582031 4.882812 7.734375 4.859375 7.878906 Z M 4.859375 7.878906 " fill-opacity="1" fill-rule="nonzero"/><g clip-path="url(#8052111014)"><path fill="#c90404" d="M 18.199219 19.152344 C 19.972656 20.402344 22.328125 20.492188 24.46875 20.121094 C 25.371094 19.964844 26.324219 19.703125 26.929688 19.007812 C 27.269531 18.617188 27.515625 18.082031 28.007812 17.914062 C 28.753906 17.660156 29.488281 18.503906 29.5 19.292969 C 29.511719 20.074219 29.082031 20.8125 28.488281 21.316406 C 27.894531 21.820312 27.15625 22.121094 26.410156 22.34375 C 24.042969 23.046875 21.476562 23.050781 19.109375 22.355469 C 19.167969 24.414062 19.230469 26.46875 19.289062 28.527344 C 19.292969 28.660156 19.289062 28.8125 19.183594 28.894531 C 19.109375 28.953125 19.003906 28.953125 18.910156 28.953125 C 16.421875 28.933594 13.9375 28.910156 11.449219 28.886719 C 11.347656 28.886719 11.238281 28.882812 11.164062 28.8125 C 11.085938 28.738281 11.082031 28.617188 11.082031 28.507812 C 11.09375 26.710938 11.109375 24.917969 11.121094 23.125 C 10.136719 23.695312 8.953125 23.855469 7.820312 23.75 C 6.683594 23.640625 5.59375 23.277344 4.53125 22.859375 C 3.335938 22.390625 2.144531 21.832031 1.210938 20.945312 C 0.835938 20.589844 0.484375 20.097656 0.617188 19.597656 C 0.707031 19.261719 1 19.011719 1.316406 18.871094 C 2.140625 18.511719 3.109375 18.761719 3.910156 19.171875 C 4.714844 19.578125 5.441406 20.140625 6.289062 20.441406 C 7.851562 20.996094 9.722656 20.53125 10.84375 19.304688 C 11.121094 19 11.585938 18.96875 12 18.960938 C 13.546875 18.925781 15.097656 18.890625 16.648438 18.855469 C 17.183594 18.84375 17.761719 18.839844 18.199219 19.152344 Z M 18.199219 19.152344 " fill-opacity="1" fill-rule="nonzero"/></g><g clip-path="url(#663e4b7597)"><path fill="#c90404" d="M 11.382812 9.195312 C 11.28125 9.210938 11.164062 9.226562 11.078125 9.167969 C 11.007812 9.125 10.96875 9.046875 10.933594 8.972656 C 10.074219 7.097656 9.214844 5.222656 8.351562 3.347656 C 8.320312 3.28125 8.289062 3.203125 8.316406 3.132812 C 8.359375 3.03125 8.496094 3.015625 8.605469 3.019531 C 10.15625 3.039062 11.707031 3.0625 13.253906 3.082031 C 13.316406 3.082031 13.371094 3.042969 13.417969 3.003906 C 14.621094 2.054688 15.824219 1.109375 17.027344 0.160156 C 17.125 0.0820312 17.261719 0 17.371094 0.0703125 C 17.429688 0.105469 17.453125 0.179688 17.476562 0.246094 C 18.105469 2.191406 18.730469 4.136719 19.359375 6.082031 C 19.382812 6.152344 19.40625 6.230469 19.382812 6.304688 C 19.355469 6.390625 19.269531 6.445312 19.1875 6.492188 C 18.234375 7.042969 17.28125 7.59375 16.324219 8.140625 C 16.011719 8.324219 15.691406 8.503906 15.335938 8.5625 C 14.015625 8.773438 12.699219 8.984375 11.382812 9.195312 M 18.945312 6.03125 C 18.355469 4.207031 17.761719 2.378906 17.171875 0.550781 C 16.097656 1.375 15.035156 2.210938 13.976562 3.054688 C 13.929688 3.09375 13.875 3.140625 13.863281 3.203125 C 13.855469 3.246094 13.867188 3.289062 13.882812 3.332031 C 14.382812 4.964844 14.882812 6.597656 15.382812 8.230469 C 16.542969 7.570312 17.699219 6.910156 18.855469 6.25 C 18.898438 6.226562 18.941406 6.199219 18.957031 6.152344 C 18.96875 6.113281 18.957031 6.070312 18.945312 6.03125 M 13.480469 3.507812 C 13.433594 3.472656 13.367188 3.46875 13.304688 3.46875 C 11.804688 3.449219 10.304688 3.429688 8.804688 3.410156 C 9.605469 5.15625 10.40625 6.902344 11.207031 8.648438 C 11.234375 8.703125 11.261719 8.761719 11.316406 8.789062 C 11.363281 8.808594 11.417969 8.800781 11.46875 8.792969 C 12.59375 8.621094 13.71875 8.445312 14.84375 8.269531 C 14.875 8.265625 14.910156 8.257812 14.929688 8.234375 C 14.953125 8.203125 14.941406 8.160156 14.929688 8.125 C 14.472656 6.632812 14.015625 5.144531 13.558594 3.652344 C 13.542969 3.601562 13.523438 3.542969 13.480469 3.507812 Z M 13.480469 3.507812 " fill-opacity="1" fill-rule="nonzero"/></g><path fill="#c90404" d="M 6.6875 16.351562 C 6.695312 16.429688 6.628906 16.503906 6.554688 16.535156 C 6.484375 16.566406 6.398438 16.566406 6.320312 16.566406 C 5.445312 16.570312 4.582031 16.742188 3.707031 16.761719 C 3.507812 16.765625 3.292969 16.757812 3.125 16.648438 C 3.230469 16.617188 3.34375 16.601562 3.453125 16.582031 C 4.421875 16.433594 5.382812 16.132812 6.367188 16.164062 C 6.503906 16.167969 6.675781 16.214844 6.6875 16.351562 Z M 6.6875 16.351562 " fill-opacity="1" fill-rule="nonzero"/><g clip-path="url(#34db534e37)"><path fill="#c90404" d="M 2.457031 17.027344 C 2.09375 16.921875 1.6875 16.710938 1.660156 16.335938 C 1.644531 16.160156 1.632812 15.984375 1.617188 15.808594 C 1.605469 15.621094 1.589844 15.4375 1.578125 15.25 C 1.507812 14.261719 1.453125 13.269531 1.398438 12.28125 C 1.378906 11.9375 1.359375 11.597656 1.339844 11.253906 C 1.335938 11.121094 1.328125 10.984375 1.355469 10.851562 C 1.453125 10.398438 1.933594 10.144531 2.378906 10.007812 C 3.683594 9.605469 5.089844 9.71875 6.429688 9.984375 C 6.550781 10.007812 6.679688 10.039062 6.75 10.140625 C 6.808594 10.21875 6.8125 10.324219 6.816406 10.425781 C 6.84375 12.050781 6.875 13.675781 6.90625 15.300781 C 6.910156 15.472656 6.890625 15.679688 6.738281 15.75 C 6.667969 15.78125 6.714844 15.890625 6.679688 15.957031 C 6.652344 16.011719 6.582031 16.019531 6.523438 16.027344 C 5.265625 16.121094 4.007812 16.214844 2.75 16.308594 C 2.730469 16.171875 2.90625 16.101562 3.042969 16.078125 C 3.851562 15.949219 4.65625 15.816406 5.464844 15.6875 C 4.351562 15.628906 3.226562 15.804688 2.183594 16.199219 C 2.085938 16.238281 2.074219 16.382812 2.132812 16.464844 C 2.195312 16.550781 2.300781 16.589844 2.398438 16.621094 C 3.792969 17.058594 5.292969 16.980469 6.738281 16.789062 C 6.832031 16.773438 6.945312 16.769531 7.003906 16.84375 C 7.066406 16.921875 7.027344 17.042969 6.945312 17.101562 C 6.867188 17.160156 6.765625 17.171875 6.664062 17.183594 C 5.257812 17.328125 3.8125 17.421875 2.457031 17.027344 M 1.796875 11.351562 C 1.875 11.457031 1.847656 11.605469 1.828125 11.734375 C 1.789062 12.007812 1.804688 12.285156 1.816406 12.558594 C 1.875 13.648438 1.929688 14.734375 1.984375 15.824219 C 3.394531 15.320312 4.921875 15.148438 6.40625 15.332031 C 6.484375 15.34375 6.515625 15.234375 6.511719 15.15625 C 6.480469 13.636719 6.449219 12.117188 6.417969 10.597656 C 6.417969 10.535156 6.414062 10.46875 6.375 10.417969 C 6.332031 10.367188 6.261719 10.351562 6.195312 10.339844 C 4.9375 10.113281 3.617188 10.003906 2.410156 10.414062 C 2.203125 10.484375 1.992188 10.578125 1.851562 10.746094 C 1.710938 10.914062 1.664062 11.175781 1.796875 11.351562 Z M 1.796875 11.351562 " fill-opacity="1" fill-rule="nonzero"/></g><path fill="#c90404" d="M 1.890625 11.027344 C 1.867188 10.78125 2.148438 10.632812 2.382812 10.5625 C 3.652344 10.179688 5.035156 10.171875 6.3125 10.539062 C 6.316406 12.085938 6.347656 13.632812 6.398438 15.179688 C 4.949219 15.121094 3.4375 15.074219 2.105469 15.648438 C 2.070312 14.84375 2.035156 14.039062 2.003906 13.234375 C 1.988281 12.921875 1.976562 12.605469 1.960938 12.289062 C 1.945312 11.867188 1.925781 11.445312 1.890625 11.027344 Z M 1.890625 11.027344 " fill-opacity="1" fill-rule="nonzero"/><g clip-path="url(#e04956f915)"><path fill="#c90404" d="M 11.382812 9.195312 C 11.28125 9.210938 11.164062 9.226562 11.078125 9.167969 C 11.007812 9.125 10.96875 9.046875 10.933594 8.972656 C 10.074219 7.097656 9.214844 5.222656 8.351562 3.347656 C 8.320312 3.28125 8.289062 3.203125 8.316406 3.132812 C 8.359375 3.03125 8.496094 3.015625 8.605469 3.019531 C 10.15625 3.039062 11.707031 3.0625 13.253906 3.082031 C 13.316406 3.082031 13.371094 3.042969 13.417969 3.003906 C 14.621094 2.054688 15.824219 1.109375 17.027344 0.160156 C 17.125 0.0820312 17.261719 0 17.371094 0.0703125 C 17.429688 0.105469 17.453125 0.179688 17.476562 0.246094 C 18.105469 2.191406 18.730469 4.136719 19.359375 6.082031 C 19.382812 6.152344 19.40625 6.230469 19.382812 6.304688 C 19.355469 6.390625 19.269531 6.445312 19.1875 6.492188 C 18.234375 7.042969 17.28125 7.59375 16.324219 8.140625 C 16.011719 8.324219 15.691406 8.503906 15.335938 8.5625 C 14.015625 8.773438 12.699219 8.984375 11.382812 9.195312 M 18.945312 6.03125 C 18.355469 4.207031 17.761719 2.378906 17.171875 0.550781 C 16.097656 1.375 15.035156 2.210938 13.976562 3.054688 C 13.929688 3.09375 13.875 3.140625 13.863281 3.203125 C 13.855469 3.246094 13.867188 3.289062 13.882812 3.332031 C 14.382812 4.964844 14.882812 6.597656 15.382812 8.230469 C 16.542969 7.570312 17.699219 6.910156 18.855469 6.25 C 18.898438 6.226562 18.941406 6.199219 18.957031 6.152344 C 18.96875 6.113281 18.957031 6.070312 18.945312 6.03125 M 13.480469 3.507812 C 13.433594 3.472656 13.367188 3.46875 13.304688 3.46875 C 11.804688 3.449219 10.304688 3.429688 8.804688 3.410156 C 9.605469 5.15625 10.40625 6.902344 11.207031 8.648438 C 11.234375 8.703125 11.261719 8.761719 11.316406 8.789062 C 11.363281 8.808594 11.417969 8.800781 11.46875 8.792969 C 12.59375 8.621094 13.71875 8.445312 14.84375 8.269531 C 14.875 8.265625 14.910156 8.257812 14.929688 8.234375 C 14.953125 8.203125 14.941406 8.160156 14.929688 8.125 C 14.472656 6.632812 14.015625 5.144531 13.558594 3.652344 C 13.542969 3.601562 13.523438 3.542969 13.480469 3.507812 Z M 13.480469 3.507812 " fill-opacity="1" fill-rule="nonzero"/></g><g clip-path="url(#ca535d3d3d)"><path fill="#c90404" d="M 8.109375 5.300781 C 8.03125 5.246094 7.980469 5.15625 7.976562 5.0625 C 7.96875 4.972656 8.007812 4.882812 8.074219 4.820312 C 8.1875 4.71875 8.382812 4.71875 8.492188 4.824219 C 8.601562 4.929688 8.617188 5.121094 8.519531 5.238281 C 8.425781 5.359375 8.234375 5.386719 8.109375 5.300781 Z M 8.109375 5.300781 " fill-opacity="1" fill-rule="nonzero"/></g><g clip-path="url(#330ddb605d)"><path fill="#c90404" d="M 19.933594 3.328125 C 19.902344 3.433594 19.808594 3.519531 19.699219 3.535156 C 19.589844 3.554688 19.476562 3.507812 19.410156 3.421875 C 19.289062 3.261719 19.398438 2.988281 19.597656 2.953125 C 19.792969 2.917969 19.988281 3.136719 19.933594 3.328125 Z M 19.933594 3.328125 " fill-opacity="1" fill-rule="nonzero"/></g><g clip-path="url(#3a9e6d6ae1)"><path fill="#c90404" d="M 24.726562 8.976562 C 26.066406 8.996094 27.402344 9.015625 28.742188 9.035156 C 28.847656 9.035156 28.96875 9.046875 29.035156 9.128906 C 29.085938 9.199219 29.082031 9.292969 29.074219 9.382812 C 28.929688 11.117188 28.785156 12.855469 28.636719 14.589844 C 28.632812 14.667969 28.621094 14.75 28.570312 14.804688 C 28.492188 14.878906 28.363281 14.863281 28.253906 14.839844 C 28.03125 14.789062 27.804688 14.738281 27.578125 14.6875 C 27.40625 14.652344 27.285156 14.875 27.296875 15.050781 C 27.304688 15.230469 27.378906 15.414062 27.3125 15.578125 C 27.246094 15.738281 27.066406 15.828125 26.894531 15.835938 C 26.722656 15.839844 26.554688 15.785156 26.394531 15.726562 C 26.253906 15.675781 26.140625 15.863281 26.140625 16.011719 C 26.136719 16.164062 26.171875 16.335938 26.0625 16.441406 C 25.980469 16.523438 25.847656 16.523438 25.730469 16.519531 C 24.65625 16.46875 23.578125 16.417969 22.503906 16.371094 C 22.28125 16.359375 22.042969 16.355469 21.867188 16.488281 C 21.800781 16.539062 21.699219 16.496094 21.660156 16.425781 C 21.617188 16.355469 21.621094 16.269531 21.625 16.1875 C 21.679688 14.636719 21.738281 13.085938 21.792969 11.535156 C 21.796875 11.445312 21.804688 11.34375 21.875 11.285156 C 21.933594 11.230469 22.023438 11.230469 22.101562 11.230469 C 22.386719 11.230469 22.675781 11.234375 22.960938 11.234375 C 22.949219 10.996094 22.972656 10.757812 23.039062 10.527344 C 23.054688 10.460938 23.082031 10.386719 23.132812 10.339844 C 23.214844 10.257812 23.34375 10.253906 23.460938 10.253906 C 23.792969 10.257812 24.121094 10.257812 24.453125 10.261719 C 24.371094 9.945312 24.34375 9.613281 24.363281 9.289062 C 24.371094 9.203125 24.386719 9.105469 24.449219 9.046875 C 24.519531 8.976562 24.628906 8.976562 24.726562 8.976562 M 23.433594 10.679688 C 23.40625 10.703125 23.390625 10.738281 23.378906 10.773438 C 23.335938 10.917969 23.332031 11.070312 23.371094 11.210938 C 24.296875 11.226562 25.222656 11.238281 26.148438 11.25 C 26.230469 11.25 26.316406 11.253906 26.378906 11.304688 C 26.472656 11.378906 26.472656 11.515625 26.464844 11.636719 C 26.386719 12.804688 26.308594 13.96875 26.234375 15.136719 C 26.226562 15.25 26.320312 15.351562 26.433594 15.390625 C 26.542969 15.429688 26.660156 15.417969 26.777344 15.402344 C 26.8125 15.402344 26.847656 15.394531 26.875 15.375 C 26.910156 15.34375 26.917969 15.292969 26.921875 15.246094 C 27.039062 13.738281 27.15625 12.230469 27.273438 10.722656 C 27.277344 10.691406 27.277344 10.65625 27.257812 10.632812 C 27.234375 10.609375 27.199219 10.609375 27.167969 10.609375 C 25.972656 10.621094 24.773438 10.632812 23.574219 10.644531 C 23.527344 10.644531 23.472656 10.648438 23.433594 10.679688 M 27.621094 10.210938 C 27.722656 10.28125 27.722656 10.425781 27.714844 10.546875 C 27.632812 11.785156 27.546875 13.019531 27.464844 14.257812 C 27.660156 13.023438 27.726562 11.769531 27.789062 10.519531 C 27.796875 10.382812 27.792969 10.21875 27.683594 10.136719 C 27.609375 10.082031 27.503906 10.082031 27.410156 10.082031 C 26.59375 10.109375 25.78125 10.132812 24.964844 10.160156 C 25.78125 10.160156 26.597656 10.164062 27.414062 10.167969 C 27.484375 10.167969 27.5625 10.167969 27.621094 10.210938 M 28.265625 14.257812 C 28.378906 12.707031 28.492188 11.160156 28.605469 9.609375 C 28.464844 11.148438 28.320312 12.6875 28.179688 14.226562 C 28.175781 14.25 28.171875 14.273438 28.15625 14.289062 C 28.136719 14.304688 28.109375 14.304688 28.082031 14.300781 C 27.917969 14.277344 27.753906 14.257812 27.589844 14.238281 C 27.753906 14.320312 27.9375 14.371094 28.121094 14.382812 C 28.160156 14.386719 28.203125 14.386719 28.230469 14.359375 C 28.257812 14.335938 28.261719 14.292969 28.265625 14.257812 M 28.445312 9.441406 C 27.304688 9.429688 26.164062 9.417969 25.023438 9.40625 C 24.941406 9.402344 24.847656 9.40625 24.789062 9.46875 C 26.070312 9.496094 27.351562 9.511719 28.628906 9.519531 C 28.605469 9.453125 28.515625 9.441406 28.445312 9.441406 M 24.808594 9.566406 C 24.792969 9.730469 24.792969 9.898438 24.816406 10.066406 C 24.820312 10.105469 24.835938 10.148438 24.871094 10.15625 C 24.953125 10.042969 24.820312 9.886719 24.84375 9.746094 C 24.851562 9.710938 24.867188 9.679688 24.867188 9.640625 C 24.871094 9.605469 24.84375 9.5625 24.808594 9.566406 Z M 24.808594 9.566406 " fill-opacity="1" fill-rule="nonzero"/></g><g clip-path="url(#2254e8792d)"><path fill="#c90404" d="M 25.4375 8.113281 C 25.535156 8.011719 25.710938 7.988281 25.828125 8.0625 C 25.972656 8.152344 26.011719 8.367188 25.914062 8.503906 C 25.816406 8.640625 25.601562 8.667969 25.46875 8.5625 C 25.339844 8.457031 25.324219 8.238281 25.4375 8.113281 Z M 25.4375 8.113281 " fill-opacity="1" fill-rule="nonzero"/></g></svg>