<svg xmlns="http://www.w3.org/2000/svg" xmlns:xlink="http://www.w3.org/1999/xlink" width="40" zoomAndPan="magnify" viewBox="0 0 30 30.000001" height="40" preserveAspectRatio="xMidYMid meet" version="1.0"><defs><clipPath id="85d77b0b9e"><path d="M 24 10 L 27.828125 10 L 27.828125 13 L 24 13 Z M 24 10 " clip-rule="nonzero"/></clipPath><clipPath id="7687f1c9dc"><path d="M 2.425781 0 L 24 0 L 24 29 L 2.425781 29 Z M 2.425781 0 " clip-rule="nonzero"/></clipPath><clipPath id="5c7efdb9b9"><path d="M 2.425781 0 L 24 0 L 24 29.03125 L 2.425781 29.03125 Z M 2.425781 0 " clip-rule="nonzero"/></clipPath><clipPath id="23b7051a1e"><path d="M 19 11 L 27.828125 11 L 27.828125 26 L 19 26 Z M 19 11 " clip-rule="nonzero"/></clipPath><clipPath id="84f3042e0e"><path d="M 24 9 L 27.828125 9 L 27.828125 14 L 24 14 Z M 24 9 " clip-rule="nonzero"/></clipPath></defs><path fill="#f9f9f9" d="M 22.390625 25.164062 L 20.726562 26.558594 L 20.277344 24.433594 Z M 22.390625 25.164062 " fill-opacity="1" fill-rule="nonzero"/><g clip-path="url(#85d77b0b9e)"><path fill="#f9f9f9" d="M 27.085938 11.402344 C 27.085938 11.527344 27.0625 11.652344 27.019531 11.769531 L 26.660156 12.828125 L 24.542969 12.097656 L 24.910156 11.039062 C 24.996094 10.78125 25.160156 10.582031 25.394531 10.445312 C 25.628906 10.304688 25.878906 10.257812 26.148438 10.304688 C 26.417969 10.347656 26.640625 10.472656 26.816406 10.683594 C 26.996094 10.890625 27.082031 11.128906 27.085938 11.402344 Z M 27.085938 11.402344 " fill-opacity="1" fill-rule="nonzero"/></g><path fill="#f4d4b7" d="M 26.660156 12.828125 L 23.214844 22.773438 L 22.390625 25.164062 L 20.277344 24.433594 L 20.863281 22.734375 L 21.28125 21.523438 L 23.214844 15.929688 L 24.542969 12.097656 Z M 26.660156 12.828125 " fill-opacity="1" fill-rule="nonzero"/><path fill="#f85646" d="M 21.28125 14.03125 L 21.28125 21.523438 L 20.863281 22.734375 L 4.84375 22.734375 L 4.84375 14.03125 Z M 21.28125 14.03125 " fill-opacity="1" fill-rule="nonzero"/><path fill="#f85646" d="M 4.84375 8.230469 L 9.195312 8.230469 L 9.195312 10.164062 L 4.84375 10.164062 Z M 4.84375 8.230469 " fill-opacity="1" fill-rule="nonzero"/><path fill="#f85646" d="M 4.84375 4.363281 L 9.195312 4.363281 L 9.195312 6.296875 L 4.84375 6.296875 Z M 4.84375 4.363281 " fill-opacity="1" fill-rule="nonzero"/><path fill="#f85646" d="M 11.128906 4.363281 L 21.28125 4.363281 L 21.28125 6.296875 L 11.128906 6.296875 Z M 11.128906 4.363281 " fill-opacity="1" fill-rule="nonzero"/><path fill="#f85646" d="M 11.128906 8.230469 L 21.28125 8.230469 L 21.28125 10.164062 L 11.128906 10.164062 Z M 11.128906 8.230469 " fill-opacity="1" fill-rule="nonzero"/><g clip-path="url(#7687f1c9dc)"><path fill="#a2a19f" d="M 23.214844 22.773438 L 23.214844 28.539062 L 2.910156 28.539062 L 2.910156 0.496094 L 23.214844 0.496094 L 23.214844 15.929688 L 21.28125 21.523438 L 21.28125 14.03125 L 4.84375 14.03125 L 4.84375 22.734375 L 20.863281 22.734375 L 20.277344 24.433594 L 20.726562 26.558594 L 22.390625 25.164062 Z M 21.28125 10.164062 L 21.28125 8.230469 L 11.128906 8.230469 L 11.128906 10.164062 Z M 21.28125 6.296875 L 21.28125 4.363281 L 11.128906 4.363281 L 11.128906 6.296875 Z M 9.195312 10.164062 L 9.195312 8.230469 L 4.84375 8.230469 L 4.84375 10.164062 Z M 9.195312 6.296875 L 9.195312 4.363281 L 4.84375 4.363281 L 4.84375 6.296875 Z M 9.195312 6.296875 " fill-opacity="1" fill-rule="nonzero"/></g><path fill="#e0dfd8" d="M 4.359375 1.945312 L 9.679688 1.945312 L 9.679688 2.910156 L 4.359375 2.910156 Z M 4.359375 1.945312 " fill-opacity="1" fill-rule="nonzero"/><g clip-path="url(#5c7efdb9b9)"><path fill="#e0dfd8" d="M 23.214844 29.019531 L 2.910156 29.019531 C 2.777344 29.019531 2.660156 28.972656 2.566406 28.878906 C 2.472656 28.785156 2.425781 28.671875 2.425781 28.539062 L 2.425781 0.496094 C 2.425781 0.359375 2.472656 0.246094 2.566406 0.152344 C 2.660156 0.0585938 2.777344 0.0117188 2.910156 0.0117188 L 23.214844 0.0117188 C 23.351562 0.0117188 23.464844 0.0585938 23.558594 0.152344 C 23.652344 0.246094 23.699219 0.359375 23.699219 0.496094 L 23.699219 15.929688 C 23.699219 15.980469 23.691406 16.035156 23.671875 16.085938 L 20.890625 24.132812 L 22.089844 24.546875 L 22.757812 22.617188 C 22.796875 22.503906 22.867188 22.417969 22.96875 22.359375 C 23.070312 22.296875 23.179688 22.277344 23.296875 22.296875 C 23.414062 22.316406 23.507812 22.371094 23.585938 22.460938 C 23.660156 22.550781 23.699219 22.65625 23.699219 22.773438 L 23.699219 28.539062 C 23.699219 28.671875 23.652344 28.785156 23.558594 28.878906 C 23.464844 28.972656 23.351562 29.019531 23.214844 29.019531 Z M 3.390625 28.054688 L 22.734375 28.054688 L 22.734375 25.503906 C 22.589844 25.648438 22.421875 25.6875 22.230469 25.621094 L 20.117188 24.890625 C 19.992188 24.847656 19.898438 24.765625 19.84375 24.644531 C 19.785156 24.523438 19.777344 24.402344 19.820312 24.273438 L 20.40625 22.578125 L 22.734375 15.847656 L 22.734375 0.976562 L 3.390625 0.976562 Z M 3.390625 28.054688 " fill-opacity="1" fill-rule="nonzero"/></g><path fill="#e0dfd8" d="M 9.195312 10.648438 L 4.84375 10.648438 C 4.710938 10.648438 4.59375 10.601562 4.5 10.507812 C 4.40625 10.410156 4.359375 10.296875 4.359375 10.164062 L 4.359375 8.230469 C 4.359375 8.097656 4.40625 7.984375 4.5 7.886719 C 4.59375 7.792969 4.710938 7.746094 4.84375 7.746094 L 9.195312 7.746094 C 9.328125 7.746094 9.441406 7.792969 9.535156 7.886719 C 9.628906 7.984375 9.679688 8.097656 9.679688 8.230469 L 9.679688 10.164062 C 9.679688 10.296875 9.628906 10.410156 9.535156 10.507812 C 9.441406 10.601562 9.328125 10.648438 9.195312 10.648438 Z M 5.328125 9.679688 L 8.710938 9.679688 L 8.710938 8.714844 L 5.328125 8.714844 Z M 5.328125 9.679688 " fill-opacity="1" fill-rule="nonzero"/><path fill="#e0dfd8" d="M 21.28125 10.648438 L 11.128906 10.648438 C 10.996094 10.648438 10.882812 10.601562 10.785156 10.507812 C 10.691406 10.410156 10.644531 10.296875 10.644531 10.164062 L 10.644531 8.230469 C 10.644531 8.097656 10.691406 7.984375 10.785156 7.886719 C 10.882812 7.792969 10.996094 7.746094 11.128906 7.746094 L 21.28125 7.746094 C 21.414062 7.746094 21.53125 7.792969 21.625 7.886719 C 21.71875 7.984375 21.765625 8.097656 21.765625 8.230469 L 21.765625 10.164062 C 21.765625 10.296875 21.71875 10.410156 21.625 10.507812 C 21.53125 10.601562 21.414062 10.648438 21.28125 10.648438 Z M 11.613281 9.679688 L 20.796875 9.679688 L 20.796875 8.714844 L 11.613281 8.714844 Z M 11.613281 9.679688 " fill-opacity="1" fill-rule="nonzero"/><path fill="#e0dfd8" d="M 9.195312 6.78125 L 4.84375 6.78125 C 4.710938 6.78125 4.59375 6.734375 4.5 6.636719 C 4.40625 6.542969 4.359375 6.429688 4.359375 6.296875 L 4.359375 4.363281 C 4.359375 4.230469 4.40625 4.113281 4.5 4.019531 C 4.59375 3.925781 4.710938 3.878906 4.84375 3.878906 L 9.195312 3.878906 C 9.328125 3.878906 9.441406 3.925781 9.535156 4.019531 C 9.628906 4.113281 9.679688 4.230469 9.679688 4.363281 L 9.679688 6.296875 C 9.679688 6.429688 9.628906 6.542969 9.535156 6.636719 C 9.441406 6.734375 9.328125 6.78125 9.195312 6.78125 Z M 5.328125 5.8125 L 8.710938 5.8125 L 8.710938 4.847656 L 5.328125 4.847656 Z M 5.328125 5.8125 " fill-opacity="1" fill-rule="nonzero"/><path fill="#e0dfd8" d="M 21.28125 6.78125 L 11.128906 6.78125 C 10.996094 6.78125 10.882812 6.734375 10.785156 6.636719 C 10.691406 6.542969 10.644531 6.429688 10.644531 6.296875 L 10.644531 4.363281 C 10.644531 4.230469 10.691406 4.113281 10.785156 4.019531 C 10.882812 3.925781 10.996094 3.878906 11.128906 3.878906 L 21.28125 3.878906 C 21.414062 3.878906 21.53125 3.925781 21.625 4.019531 C 21.71875 4.113281 21.765625 4.230469 21.765625 4.363281 L 21.765625 6.296875 C 21.765625 6.429688 21.71875 6.542969 21.625 6.636719 C 21.53125 6.734375 21.414062 6.78125 21.28125 6.78125 Z M 11.613281 5.8125 L 20.796875 5.8125 L 20.796875 4.847656 L 11.613281 4.847656 Z M 11.613281 5.8125 " fill-opacity="1" fill-rule="nonzero"/><path fill="#e0dfd8" d="M 20.863281 23.21875 L 4.84375 23.21875 C 4.710938 23.21875 4.59375 23.171875 4.5 23.078125 C 4.40625 22.984375 4.359375 22.871094 4.359375 22.734375 L 4.359375 14.03125 C 4.359375 13.898438 4.40625 13.785156 4.5 13.691406 C 4.59375 13.597656 4.710938 13.550781 4.84375 13.550781 L 21.28125 13.550781 C 21.414062 13.550781 21.53125 13.597656 21.625 13.691406 C 21.71875 13.785156 21.765625 13.898438 21.765625 14.03125 L 21.765625 21.523438 C 21.765625 21.578125 21.757812 21.628906 21.738281 21.679688 L 21.320312 22.894531 C 21.242188 23.109375 21.089844 23.21875 20.863281 23.21875 Z M 5.328125 22.253906 L 20.515625 22.253906 L 20.796875 21.441406 L 20.796875 14.515625 L 5.328125 14.515625 Z M 5.328125 22.253906 " fill-opacity="1" fill-rule="nonzero"/><path fill="#e0dfd8" d="M 4.359375 11.613281 L 10.160156 11.613281 L 10.160156 12.582031 L 4.359375 12.582031 Z M 4.359375 11.613281 " fill-opacity="1" fill-rule="nonzero"/><g clip-path="url(#23b7051a1e)"><path fill="#e0dfd8" d="M 22.390625 25.644531 C 22.335938 25.644531 22.28125 25.636719 22.230469 25.621094 L 20.117188 24.890625 C 19.992188 24.847656 19.898438 24.765625 19.84375 24.644531 C 19.785156 24.523438 19.777344 24.402344 19.820312 24.273438 L 24.085938 11.941406 C 24.128906 11.8125 24.210938 11.722656 24.332031 11.664062 C 24.453125 11.605469 24.574219 11.597656 24.699219 11.640625 L 26.820312 12.371094 C 26.945312 12.414062 27.039062 12.496094 27.097656 12.617188 C 27.15625 12.738281 27.160156 12.859375 27.117188 12.988281 L 22.847656 25.320312 C 22.773438 25.539062 22.621094 25.648438 22.390625 25.644531 Z M 20.890625 24.132812 L 22.089844 24.546875 L 26.042969 13.128906 L 24.839844 12.714844 Z M 20.890625 24.132812 " fill-opacity="1" fill-rule="nonzero"/></g><path fill="#e0dfd8" d="M 20.722656 27.046875 C 20.671875 27.046875 20.617188 27.035156 20.566406 27.019531 C 20.394531 26.960938 20.289062 26.839844 20.25 26.660156 L 19.804688 24.535156 L 20.75 24.335938 L 21.03125 25.671875 L 22.082031 24.792969 L 22.703125 25.535156 L 21.035156 26.933594 C 20.945312 27.007812 20.839844 27.046875 20.722656 27.046875 Z M 20.722656 27.046875 " fill-opacity="1" fill-rule="nonzero"/><g clip-path="url(#84f3042e0e)"><path fill="#e0dfd8" d="M 26.660156 13.3125 C 26.605469 13.3125 26.550781 13.304688 26.5 13.285156 L 24.382812 12.554688 C 24.257812 12.511719 24.164062 12.429688 24.105469 12.308594 C 24.046875 12.191406 24.039062 12.066406 24.085938 11.941406 L 24.453125 10.882812 C 24.511719 10.703125 24.605469 10.539062 24.722656 10.394531 C 24.84375 10.246094 24.984375 10.125 25.148438 10.027344 C 25.308594 9.933594 25.484375 9.867188 25.671875 9.832031 C 25.855469 9.796875 26.042969 9.792969 26.230469 9.824219 C 26.417969 9.855469 26.59375 9.917969 26.757812 10.011719 C 26.921875 10.105469 27.066406 10.226562 27.1875 10.371094 C 27.308594 10.511719 27.402344 10.675781 27.46875 10.851562 C 27.535156 11.03125 27.566406 11.214844 27.566406 11.402344 C 27.570312 11.585938 27.539062 11.761719 27.476562 11.933594 L 27.117188 12.984375 C 27.042969 13.203125 26.890625 13.3125 26.660156 13.3125 Z M 25.15625 11.800781 L 26.359375 12.214844 L 26.5625 11.613281 C 26.589844 11.546875 26.601562 11.476562 26.601562 11.402344 C 26.601562 11.101562 26.457031 10.902344 26.171875 10.804688 C 26.007812 10.746094 25.847656 10.757812 25.6875 10.832031 C 25.53125 10.910156 25.421875 11.03125 25.367188 11.199219 Z M 25.15625 11.800781 " fill-opacity="1" fill-rule="nonzero"/></g><path fill="#e0dfd8" d="M 4.84375 24.1875 L 15.480469 24.1875 L 15.480469 25.152344 L 4.84375 25.152344 Z M 4.84375 24.1875 " fill-opacity="1" fill-rule="nonzero"/></svg>